<svg id="60679b35-6ea9-4c6b-a942-6ba01155579b" data-name="Layer 1" xmlns="http://www.w3.org/2000/svg" xmlns:xlink="http://www.w3.org/1999/xlink" width="1071.46" height="877.29" viewBox="0 0 1071.46 877.29"><defs><linearGradient id="855bddb9-aa91-461d-b40f-e4c87c81c0e6" x1="925.45" y1="875.88" x2="925.45" y2="555.43" gradientUnits="userSpaceOnUse"><stop offset="0" stop-color="gray" stop-opacity="0.25"/><stop offset="0.54" stop-color="gray" stop-opacity="0.12"/><stop offset="1" stop-color="gray" stop-opacity="0.1"/></linearGradient><linearGradient id="589cf496-c030-4af0-a6a1-dabcf63dc25d" x1="457.21" y1="740.22" x2="457.21" y2="11.35" gradientUnits="userSpaceOnUse"><stop offset="0" stop-opacity="0.1"/><stop offset="0.47" stop-opacity="0.3"/><stop offset="1" stop-opacity="0.5"/></linearGradient></defs><title>heartbroken</title><ellipse cx="867.35" cy="846.6" rx="204.11" ry="30.69" fill="#ffbc44" opacity="0.1"/><path d="M1007.38,775.21s-26.38,8.71-27.36,11c-.43,1-5.21,3.23-10.47,5.43.68-2.9.06-6.53-.76-7.73-.19-.28-.55-.72-1-1.27,2.2-4.88,4.41-10.31,7.18-14.84,4.73-7.72,4.32-17.26,4.32-17.26l3-10.84s4.24-20.22,4.24-21.86v-21.2s.33-3.09.71-6.81a27.64,27.64,0,0,0,8.41-12.58l-3.06-3.65a11.9,11.9,0,0,0,2.09-3.57,12.69,12.69,0,0,0,.75-4.68,18.47,18.47,0,0,0-.22-2.77.29.29,0,0,0,0,.09,32.41,32.41,0,0,0-2.24-7.19c-2-4.6-4.41-9.18-4.63-14.18-.58-13.7,15.26-23.34,16.17-37,0-.31,0-.63,0-.94,0-.12,0-.23,0-.34s0-.32,0-.48a21.45,21.45,0,0,0-.18-2.28.29.29,0,0,0,0,.09c-1-6.61-5.36-12.62-10.57-17-6.23-5.2-13.68-8.68-20.37-13.28s-12.69-10.31-20.3-12.88c-4.75-1.6-9.83-1.85-14.83-1.75-10,.2-19.07,2.66-28.79,4.28-6.76,1.12-15.74-2.2-21.25,3.47-4.44,4.58-1.39,13.31-5.86,17.86-2.1,2.13-5.28,2.67-7.9,4.1-4.58,2.51-7,7.57-7.61,12.9,0,0,0-.09,0-.13,0,.29-.05.59-.07.89h0c0,.37,0,.73-.06,1.1s0,.62,0,.93v.3a24.84,24.84,0,0,0,.26,3.24c1.09,7.26,4.7,13.85,7.28,20.71s4.1,14.76,1,21.42c-2,4.42-5.91,7.78-8,12.19a18.59,18.59,0,0,0-1.59,5.76s0-.09,0-.13c0,.23,0,.45-.05.68h0a24.23,24.23,0,0,0-4.5,6.58c-2.4,5.32-5.41,6.52-6.17,6.75l-.37,0s-1.37,8.55,5.75,14c.19,3.22.6,6.22,1.44,7.91.66,1.32,1,4.7,1.06,8.93,0,.18,0,.37,0,.56l-.74-.62s-9-22.68-9.45-26.95-4.4-10.58-4.4-10.58S835.08,654.09,818,653.43s1.63,7.89,1.63,7.89-6.84,17.42,13.68,23.83c0,0,5.21,6.41,6,11.5s7,23.17,7,23.17,7.33,28.27,22.88,38.62c0,0,4.89.23,8.34-2.72a16.56,16.56,0,0,0,5-4.3,16.79,16.79,0,0,1-2,5.05c-5.21,7.89-5.21,11.18-5.21,11.18s2.44,5.09-1.79,6.41-2.61,5.91-2.61,5.91-4.35,3.22-5.08,6.19c-9.46-6.24-22.36-15-25.37-18.35-4.89-5.42-38.6,3.37-26.06,28.56,0,0,7.82,16,19.87,24.69,1.37,1,2.67,2,3.92,3.05a30,30,0,0,0,7.55,7.15c1.83,2,3.39,3.8,4.65,5.36a1.33,1.33,0,0,0-.19.14l-.3.25-.2.18c-.11.1-.21.2-.31.31l-.18.18c-.12.12-.23.26-.34.39a2.09,2.09,0,0,1-.14.17c-.15.19-.31.4-.46.62-5,7.34-7.49,25.09-7.49,25.09s.87,7.23,12.27,7.78a12,12,0,0,0,3.16-.42,1.27,1.27,0,0,0,.86-.68c.32-1.09,15.42-5.25,26.17-4s16.17-.22,16.17-.22.77-1.56,1.62-3.73L918,858.07l1.1-.29c8,2.66,15.53,5.35,15.53,5.35s9.77,5.91,11.88,6.57c1.4.44,6,.3,8.95.15.2,1.16.34,1.88.34,1.88s7.7.55,11.29,1.09,27-2.08,35.82,2.42c0,0,.42.08,1.14.19,4.91.75,24,2.57,23.29-14.44-.87-19.5-16.94-21.69-16.94-21.69a47.63,47.63,0,0,0-12.41.49c8-5,19.5-12.34,29.14-19.39,10.61-7.77,12.44-13.33,12.39-16.32a63.76,63.76,0,0,1,.33-8.52C1043.74,761.6,1007.38,775.21,1007.38,775.21ZM879.05,696.65Zm79,61.79a7.4,7.4,0,0,0,1.22-3.51,42.44,42.44,0,0,1-2.46,8.14C956.85,760.73,957,759.54,958,758.44Zm1.63-7.89s.19-2.27.61-4.89c-.25,2.17-.48,4.18-.66,5.8C959.66,750.91,959.67,750.55,959.67,750.55Z" transform="translate(-64.27 -11.35)" fill="url(#855bddb9-aa91-461d-b40f-e4c87c81c0e6)"/><path d="M888.21,566.71c-4.44,4.53-1.39,13.19-5.86,17.69-2.1,2.11-5.28,2.65-7.9,4.07-6.4,3.47-8.6,11.86-7.5,19s4.7,13.72,7.28,20.53,4.1,14.62,1,21.22c-2,4.38-5.91,7.71-8,12.08-3.09,6.58-1.63,14.39.93,21.19,2.71,7.19,7.1,14.43,14.25,17.24,5.06,2,10.72,1.45,16.06,2.46,7.92,1.51,15.18,6.42,23.24,6.27,7.84-.14,14.73-5,20.66-10.18s11.74-10.86,19.19-13.29c5.89-1.92,12.25-1.58,18.35-2.61s12.57-4,14.72-9.85c1.73-4.65.23-9.86-1.73-14.42s-4.41-9.09-4.63-14c-.58-13.58,15.26-23.13,16.17-36.68.54-8.07-4.52-15.58-10.75-20.74s-13.68-8.61-20.37-13.16-12.69-10.23-20.3-12.77A44.09,44.09,0,0,0,938.25,559c-10,.2-19.07,2.64-28.79,4.24C902.7,564.38,893.72,561.09,888.21,566.71Z" transform="translate(-64.27 -11.35)" fill="#4a4a76"/><g opacity="0.1"><path d="M874.23,627.81a40.94,40.94,0,0,1,2.58,10.27c.58-5.13-.72-10.57-2.58-15.49-2.59-6.8-6.2-13.32-7.29-20.52-.05-.31-.08-.63-.11-1a23.93,23.93,0,0,0,.11,6.16C868,614.48,871.64,621,874.23,627.81Z" transform="translate(-64.27 -11.35)"/><path d="M994.69,667.13c-2.15,5.8-8.62,8.82-14.72,9.85s-12.47.69-18.35,2.61c-7.46,2.43-13.27,8.16-19.2,13.29s-12.82,10-20.66,10.18c-8.06.14-15.31-4.77-23.23-6.27-5.34-1-11-.48-16.06-2.47-7.15-2.81-11.55-10-14.25-17.23a41,41,0,0,1-2.53-10.16c-.57,5.09.69,10.49,2.53,15.37,2.7,7.19,7.1,14.43,14.25,17.23,5.06,2,10.72,1.46,16.06,2.47,7.92,1.5,15.17,6.42,23.23,6.27,7.84-.14,14.74-5,20.66-10.18s11.74-10.86,19.2-13.29c5.88-1.92,12.24-1.58,18.35-2.61s12.57-4.05,14.72-9.85a14.1,14.1,0,0,0,.53-7.15A13.62,13.62,0,0,1,994.69,667.13Z" transform="translate(-64.27 -11.35)"/><path d="M988.33,638.65a16.8,16.8,0,0,0,.19,1.89c1.78-11.88,15.14-20.93,16-33.36a18.82,18.82,0,0,0-.16-3.76C1002.47,616.22,987.76,625.57,988.33,638.65Z" transform="translate(-64.27 -11.35)"/></g><path d="M854.79,680.87s-3.12,19.18,24.26,18.08-13.51-19.47-13.51-19.47Z" transform="translate(-64.27 -11.35)" fill="#ffbc44"/><path d="M865.36,679.48l-10.76,1.39s-3.12,19.18,24.27,18.08" transform="translate(-64.27 -11.35)" opacity="0.1"/><path d="M995.66,679.73S990,700.29,967,697.25l-3.21-9.48,22.11-10.06Z" transform="translate(-64.27 -11.35)" fill="#ffbc44"/><path d="M985.86,677.71l9.8,2S990,700.29,967,697.25" transform="translate(-64.27 -11.35)" opacity="0.1"/><path d="M886.22,742.43c-.2,7.57-4,11.79-6.91,13.92a13.84,13.84,0,0,1-3.35,1.87l-14.17-17.91s1.3-17.56,1.06-28.93c-.09-4.19-.4-7.54-1.06-8.85-1.6-3.21-1.66-11.17-1.52-16.27.08-2.68.22-4.58.22-4.58L879.05,699s.08.3.21.84C880.45,704.85,886.51,731.26,886.22,742.43Z" transform="translate(-64.27 -11.35)" fill="#ffb9b9"/><rect x="825.7" y="799.63" width="19.22" height="16.94" fill="#4a4a76"/><rect x="830.36" y="615.07" width="61.29" height="49.94" fill="#4a4a76"/><rect x="830.36" y="597.48" width="57.11" height="67.53" opacity="0.1"/><path d="M907.23,637.71s11.4,20.85-7,22-3.09,37.62-3.09,37.62,22.64,15,23.13,15,18.72.16,19.21-.16S954,694.39,954,694.39l1.95-20.2-5-16s-19.38,8.31-14-22.31Z" transform="translate(-64.27 -11.35)" fill="#ffb9b9"/><path d="M1039.81,797a62.57,62.57,0,0,0-.33,8.44c0,3-1.78,8.47-12.39,16.17-16.62,12-38.85,25.08-38.85,25.08l-40,13.84-12.9-6-9.09-4.25-2.43-18.82-2.13-16.51,33.55-16.29S979,790,980,787.7s27.36-10.91,27.36-10.91S1043.74,763.3,1039.81,797Z" transform="translate(-64.27 -11.35)" fill="#ffb9b9"/><path d="M965.69,794.21l-2.88,4-2.33,3.21c-14.66,1-36.47,34.36-36.47,34.36l-16-13.19a95.09,95.09,0,0,0-39.25-29.8l.18-.32,3.41-6.2,49.83-5.86Z" transform="translate(-64.27 -11.35)" fill="#4a4a76"/><path d="M965.69,794.21l-2.88,4c-6.83-.41-18.78-1.68-18.78-1.68s-5.86,3.59-9,2.28-42.5-.65-47.22-3.74c-3.67-2.41-13.73-1.57-18.88-2.6l3.41-6.2,49.83-5.86Z" transform="translate(-64.27 -11.35)" opacity="0.1"/><path d="M968.79,688l-1.14,10.74c4.72,14.66-5,29.05-5,29.05s1.46,10-.33,12.64-2.6,11.89-2.6,11.89-.17,6.35-1.63,7.82-1.14,3.09-1.31,7.49c-.13,3.51,6.71,11.39,10.21,15.5.88,1,1.55,1.83,1.85,2.25,1.46,2.12,2.28,11.73-3.59,11.56l-1.48-.06c-1.34-.07-3-.18-4.69-.31-6.71-.54-15-1.42-15-1.42a23.65,23.65,0,0,1-2.41,1.25c-2,.88-4.73,1.79-6.55,1-3.09-1.3-42.5-.65-47.22-3.74-3.52-2.31-12.93-1.63-18.23-2.49-1.81-.29-3.14-.76-3.59-1.59-1.8-3.25,4.88-8.14,4.88-8.14s-1.63-4.56,2.61-5.86,1.79-6.35,1.79-6.35,0-3.26,5.21-11.08,2.93-30.29,2.93-30.29c-12.05-16.12-4.4-29-4.4-29l-9.77-34.53,5.7-5.21,27,.31-2.1,11.25c-2.93,21,25.57,30,25.57,30,26.54.81,21-28.34,21-28.34l-3.72-13.53s6.49-2.27,20.5-3.89c6.65-.78,9.48.18,10.62,1.39a30.26,30.26,0,0,0,5.14,4.45,14.8,14.8,0,0,1,3.29,3.11l-9,16Z" transform="translate(-64.27 -11.35)" fill="#ffbc44"/><path d="M905.08,818.88l-21.42,25.93-6.23,7.54L854,842.42a87.54,87.54,0,0,0-19.7-20.2c-12-8.63-19.87-24.46-19.87-24.46-12.54-25,21.17-33.67,26.06-28.3s35.83,24.92,35.83,24.92c5.42,1.4,13.33,8.37,19.49,14.51C901.08,814.19,905.08,818.88,905.08,818.88Z" transform="translate(-64.27 -11.35)" fill="#ffb9b9"/><circle cx="858.1" cy="605.68" r="30.86" opacity="0.1"/><circle cx="858.1" cy="605.03" r="30.86" fill="#ffb9b9"/><path d="M867.25,741.45c-1.85,1.35,1.71-2.28,1.71-2.28l-7.17,1.14s1.3-17.56,1.06-28.93c9.57,7.55,16.86,28.93,16.86,28.93C882.68,748.7,869.56,738.65,867.25,741.45Z" transform="translate(-64.27 -11.35)" opacity="0.1"/><path d="M879.05,740.31s-7.32-21.5-16.93-29c0,0-9-22.47-9.45-26.71s-4.4-10.48-4.4-10.48-13.19-17.36-30.29-18,1.63,7.81,1.63,7.81-6.84,17.26,13.68,23.62c0,0,5.21,6.35,6,11.4s7,23,7,23,7.33,28,22.88,38.27C869.2,760.18,886.38,761,879.05,740.31Z" transform="translate(-64.27 -11.35)" fill="#ffb9b9"/><path d="M956.73,767.67c-.13,3.51,6.71,11.39,10.21,15.5a57.16,57.16,0,0,1-5.23,9.77l-.09.13L959,796.61c-1.62,2.24-3.35,4.69-4.86,6.8-2.24,3.17-3.95,5.62-3.95,5.62s-13.52,35.67-17.1,26.55a25.19,25.19,0,0,1-1.69-10.11c.19-7.1,3-15.47,8.53-25.88.58-1.08,1.13-2.14,1.66-3.15,1.64-3.16,3-6,4.24-8.54a133,133,0,0,0,5.66-13.55S956.9,763.27,956.73,767.67Z" transform="translate(-64.27 -11.35)" opacity="0.1"/><path d="M988,684.82c-.49,5.77-1.41,14.13-1.41,14.13v21c0,1.63-4.24,21.66-4.24,21.66l-3,10.75s.41,9.45-4.32,17.1-7.81,17.91-12.05,23.61-11.4,16-11.4,16S938,844.7,934.42,835.58s-1.63-20.2,6.84-36,11.57-25.24,11.57-25.24,6-13.49,6.44-17.74,3.33-28.78,3.33-28.78,5.49-15.93,4.37-33.42c0-.66,1.41-1.31,1.35-2-1.81-18.24,19.84-12.95,19.84-12.95A26,26,0,0,1,988,684.82Z" transform="translate(-64.27 -11.35)" fill="#ffb9b9"/><path d="M933.48,835.74c-3.75,5.76,43.61,6.84,36.44,7.49a60.69,60.69,0,0,0-7.6,1.6h0c-13.42,3.39-37.51,10.94-37.51,10.94l-3.21.86-23,6.14,1.69-12.32,1.4-10.15,17.43-8.63s2.26-1,5.13-2.4c4.91-2.32,11.59-5.55,11.8-6.07.33-.81,17.1-11.89,17.1-11.89,4.72-4.39,41.69-21.33,41.69-21.33C1039.19,780.33,937.22,830,933.48,835.74Z" transform="translate(-64.27 -11.35)" opacity="0.1"/><path d="M1016.17,826.52c-3.74,5.76-39.08,18-46.25,18.67a62.05,62.05,0,0,0-7.6,1.59h0c-7.66,1.94-18.8,5.23-27,7.7l-9.09-4.25-2.43-18.82.4-.18c4.91-2.32,11.59-5.56,11.8-6.07.33-.82,29.64-3.26,29.64-3.26,4.72-4.4,29.15-30,29.15-30C980.35,821.08,1019.92,820.76,1016.17,826.52Z" transform="translate(-64.27 -11.35)" opacity="0.1"/><path d="M1016.17,825.87c-3.74,5.75-39.08,18-46.25,18.67a60.16,60.16,0,0,0-7.6,1.59h0c-1.54.39-3.22.83-5,1.32-13.64,3.71-32.52,9.62-32.52,9.62l-3.21.86-3.64,1L901,863.43l-2.43.65,1.4-10.2.29-2.13.18-1.3h0l1.22-8.84L919.12,833s1.23-.56,3-1.41l2.1-1c4.91-2.32,11.59-5.56,11.8-6.08.33-.81,17.1-11.88,17.1-11.88,4.72-4.4,41.69-21.34,41.69-21.34C1039.19,781.64,1019.92,820.11,1016.17,825.87Z" transform="translate(-64.27 -11.35)" fill="#ffb9b9"/><path d="M903.31,854.61c-.06,2.69-1.24,6.2-2.28,8.82-.85,2.15-1.62,3.69-1.62,3.69s-5.43,1.41-16.17.21-25.85,2.94-26.17,4c-.09.3-.42.51-.86.67a12.28,12.28,0,0,1-3.16.41c-11.4-.54-12.27-7.7-12.27-7.7s2.5-17.59,7.49-24.87a8.41,8.41,0,0,1,3.78-3.15c4.71-1.92,10,1.42,10,1.42a15.36,15.36,0,0,0,3.69,1.74h0c8.57,3.25,28.78,8.76,34.71,10.57h0l.89.27C902.85,851.21,903.35,852.7,903.31,854.61Z" transform="translate(-64.27 -11.35)" fill="#4a4a76"/><path d="M851.86,858.21s-4.47,11.23,4.35,13.81a12.28,12.28,0,0,1-3.16.41c-11.4-.54-12.27-7.7-12.27-7.7s2.5-17.59,7.49-24.87,13.79-1.73,13.79-1.73a15.36,15.36,0,0,0,3.69,1.74S853.6,841.49,851.86,858.21Z" transform="translate(-64.27 -11.35)" opacity="0.1"/><path d="M925.47,764.57s29.31-5.45,29.72-3.74S925.47,764.57,925.47,764.57Z" transform="translate(-64.27 -11.35)" opacity="0.1"/><path d="M934.75,769.13s17.67-3.58,17.83-2S934.75,769.13,934.75,769.13Z" transform="translate(-64.27 -11.35)" opacity="0.1"/><path d="M876.37,784s34.6,6.1,40.14,7.32,24.43,0,24.43,0-24.27-.32-27-2.28S876.37,784,876.37,784Z" transform="translate(-64.27 -11.35)" opacity="0.1"/><path d="M925.87,803.82s12-1.38,11,0S925.87,803.82,925.87,803.82Z" transform="translate(-64.27 -11.35)" opacity="0.1"/><path d="M920.5,822.63s10.26-9.2,10.34-7.9S920.5,822.63,920.5,822.63Z" transform="translate(-64.27 -11.35)" opacity="0.1"/><path d="M905.08,818.88l-21.42,25.93a52.11,52.11,0,0,0-8-2.23c-8.79-1.46-34.2-9.28-38.92-22.64,0,0,100.1,27,96.68,24.27s-120.45-78.66-76.81-59.44c0,0,25.26,12.88,39.2,24.12C901.08,814.19,905.08,818.88,905.08,818.88Z" transform="translate(-64.27 -11.35)" opacity="0.1"/><path d="M958.69,869.13s-9.45.65-11.56,0-11.89-6.52-11.89-6.52-6.35-2.26-13.64-4.68c-8.12-2.69-17.4-5.57-20.4-5.74l-.91-.44,1.4-10.15L919.12,833s2.26-1,5.13-2.39l5.78,3.86s13.51,9.28,17.58,9.61c3.58.28,12.3,1.82,14.71,2.08h0a2.3,2.3,0,0,0,.6,0C963.41,846,958.69,869.13,958.69,869.13Z" transform="translate(-64.27 -11.35)" opacity="0.1"/><path d="M957.33,847.45c-13.64,3.71-32.52,9.62-32.52,9.62l-3.21.86-3.64,1c-5.49-1.79-11.1-3.5-14.65-4.3a19.75,19.75,0,0,0-2.76-.47l-.55-.26c-3-1.42-17.17-8-25-9.34a88.92,88.92,0,0,1-22.93-7.83c4.71-1.92,10,1.42,10,1.42a15.36,15.36,0,0,0,3.69,1.74h0c8.57,3.25,28.78,8.76,34.71,10.57l1.22-8.84L919.12,833s1.23-.56,3-1.41l7.22,4.83S942.89,845.68,947,846C949.29,846.19,953.8,846.91,957.33,847.45Z" transform="translate(-64.27 -11.35)" opacity="0.1"/><path d="M855.93,786.07s39.25,20,46.9,31.92l26.54,17.75S942.89,845,947,845.35s14.82,2.28,15.31,2.12-4.23,23-4.23,23-9.45.65-11.57,0-11.88-6.52-11.88-6.52-28.34-10.09-34-10.42c0,0-16.77-8.14-25.57-9.61s-34.2-9.28-38.92-22.63c0,0-5.7-7.33-9.12-10.1S812.28,766.85,855.93,786.07Z" transform="translate(-64.27 -11.35)" fill="#ffb9b9"/><path d="M1004,876.11c-.72-.11-1.14-.2-1.14-.2-8.79-4.45-32.24-1.85-35.82-2.39s-11.29-1.09-11.29-1.09-4-21.38-1.42-22.14a9.86,9.86,0,0,0,4.24-2.61c4.23-2.6,27.79-3.36,30.83-3.47a5,5,0,0,0,2.86-.81h0a2,2,0,0,0,.72-.82c5.64-3.47,17.36-2.28,17.36-2.28s16.07,2.17,16.94,21.5C1028.06,878.66,1008.92,876.84,1004,876.11Z" transform="translate(-64.27 -11.35)" fill="#4a4a76"/><path d="M1004,876.11c15.55-4.31,13.63-14.64,13.63-14.64-4.19-20.61-24.9-18.13-25.36-18.07a2,2,0,0,0,.72-.82c5.64-3.47,17.36-2.28,17.36-2.28s16.07,2.17,16.94,21.5C1028.06,878.66,1008.92,876.84,1004,876.11Z" transform="translate(-64.27 -11.35)" opacity="0.1"/><path d="M988,684.82l-21,9.59c0-.66,1.41-1.31,1.35-2-1.81-18.24,19.84-12.95,19.84-12.95A26,26,0,0,1,988,684.82Z" transform="translate(-64.27 -11.35)" opacity="0.1"/><polygon points="915.1 653.07 918.03 652.58 931.39 668.38 900.28 683.68 898.65 668.86 905.98 660.23 915.1 653.07" fill="#ffbc44"/><path d="M879.26,699.79l-.21.46-18.78-14c.08-2.68.22-4.58.22-4.58L879.05,699S879.13,699.25,879.26,699.79Z" transform="translate(-64.27 -11.35)" opacity="0.1"/><path d="M874.82,664.42h-5.54a26,26,0,0,0-8.14,9.71c-2.77,6.09-6.35,6.74-6.35,6.74L879.05,699l4.56-10.43Z" transform="translate(-64.27 -11.35)" fill="#ffbc44"/><path d="M893.5,591.79a18.82,18.82,0,0,0-1.76,6.56,6.44,6.44,0,0,0,2.87,5.83,7.73,7.73,0,0,0,3.08.81c5.3.51,10.56-1,15.82-1.87,6.43-1,13.29-1,19.19,1.72,3.29,1.55,6.13,3.88,9.07,6s6.1,4.14,9.67,4.86,7.62-.07,10-2.8c2.06-2.35,2.58-5.69,2.49-8.81a32.44,32.44,0,0,0-10.39-22.27,42.82,42.82,0,0,0-22.43-10.68A24.37,24.37,0,0,0,912,575a50.29,50.29,0,0,0-14.11,13.08,28.18,28.18,0,0,1-3.67,4.53,6.88,6.88,0,0,1-5.3,2" transform="translate(-64.27 -11.35)" opacity="0.1"/><path d="M893.5,590.49a18.76,18.76,0,0,0-1.76,6.56,6.46,6.46,0,0,0,2.87,5.83,7.73,7.73,0,0,0,3.08.81c5.3.5,10.56-1,15.82-1.87,6.43-1.05,13.29-1.06,19.19,1.72,3.29,1.54,6.13,3.88,9.07,6s6.1,4.14,9.67,4.86,7.62-.07,10-2.81c2.06-2.34,2.58-5.68,2.49-8.81a32.44,32.44,0,0,0-10.39-22.26,42.75,42.75,0,0,0-22.43-10.68A24.37,24.37,0,0,0,912,573.68a50,50,0,0,0-14.11,13.08,28.18,28.18,0,0,1-3.67,4.53,6.88,6.88,0,0,1-5.3,2" transform="translate(-64.27 -11.35)" fill="#4a4a76"/><circle cx="799.61" cy="834.57" r="0.69" fill="#fff"/><circle cx="796.84" cy="855.17" r="0.69" fill="#fff"/><circle cx="808.08" cy="835.26" r="0.69" fill="#fff"/><circle cx="803.68" cy="855.17" r="0.69" fill="#fff"/><circle cx="803.68" cy="835.26" r="0.69" fill="#fff"/><circle cx="799.61" cy="855.17" r="0.69" fill="#fff"/><circle cx="907.69" cy="836.63" r="0.69" fill="#fff"/><circle cx="920.28" cy="837.32" r="0.69" fill="#fff"/><circle cx="932.88" cy="837.32" r="0.69" fill="#fff"/><circle cx="941.35" cy="857.98" r="0.69" fill="#fff"/><circle cx="914.2" cy="837.32" r="0.69" fill="#fff"/><circle cx="926.69" cy="837.32" r="0.69" fill="#fff"/><circle cx="938.2" cy="838.02" r="0.69" fill="#fff"/><circle cx="930.38" cy="858.67" r="0.69" fill="#fff"/><circle cx="936.14" cy="858.67" r="0.69" fill="#fff"/><path d="M965.69,849.37S974.46,860,967.51,870" transform="translate(-64.27 -11.35)" opacity="0.1"/><path d="M890,851.31s-6.27,7.88-1.38,14.52" transform="translate(-64.27 -11.35)" opacity="0.1"/><path d="M914,683.79s11,8.57,9.56,12.48C923.54,696.27,921.69,690.63,914,683.79Z" transform="translate(-64.27 -11.35)" opacity="0.1"/><path d="M935.48,683.79s-11,8.57-9.55,12.48C925.93,696.27,927.77,690.63,935.48,683.79Z" transform="translate(-64.27 -11.35)" opacity="0.1"/><path d="M962.6,727.83Z" transform="translate(-64.27 -11.35)" fill="#f57979"/><path d="M962.73,727.62c-.08.14-.13.21-.13.21a2.23,2.23,0,0,1-1-1.07c-2.92-5.78,1.29-30.49,1.29-30.49l2.89,1.84h0l.79.5C971.48,712.09,963.81,725.78,962.73,727.62Z" transform="translate(-64.27 -11.35)" fill="#ffbc44"/><path d="M920.5,724.5s-4.67,7.6-7.71,7.6C912.79,732.1,920,726.45,920.5,724.5Z" transform="translate(-64.27 -11.35)" opacity="0.1"/><path d="M929.83,724.5s4.67,7.6,7.71,7.6C937.54,732.1,930.38,726.45,929.83,724.5Z" transform="translate(-64.27 -11.35)" opacity="0.1"/><g opacity="0.1"><path d="M891.78,591.06a10.24,10.24,0,0,1-1,.52L888,593.27a5.88,5.88,0,0,0,3.31-.63C891.41,592.11,891.59,591.58,891.78,591.06Z" transform="translate(-64.27 -11.35)"/><path d="M892.51,590.49l-.67.41-.06.16a7.74,7.74,0,0,0,.67-.44Z" transform="translate(-64.27 -11.35)"/><path d="M963,602.76a11.76,11.76,0,0,1-2.5,7.55c-2.4,2.73-6.46,3.53-10,2.81s-6.73-2.73-9.67-4.87-5.78-4.47-9.07-6c-5.91-2.77-12.76-2.77-19.19-1.72-5.26.86-10.52,2.38-15.82,1.88a7.58,7.58,0,0,1-3.08-.82,6.2,6.2,0,0,1-2.85-5c0,.14,0,.29,0,.44a6.46,6.46,0,0,0,2.87,5.83,7.73,7.73,0,0,0,3.08.81c5.3.5,10.56-1,15.82-1.87,6.43-1.05,13.28-1.06,19.19,1.72,3.29,1.54,6.13,3.88,9.07,6s6.1,4.14,9.67,4.86,7.62-.07,10-2.81c2.07-2.34,2.59-5.68,2.5-8.81Z" transform="translate(-64.27 -11.35)"/></g><path d="M850.13,248.31c0,.65,0,1.3,0,2,0,.85,0,1.7-.07,2.55s0,1.41-.07,2.11q-.23,5.34-.69,10.67s0,.07,0,.11c-.08,1-.17,1.9-.27,2.86-.06.62-.13,1.24-.2,1.87s-.11,1.1-.18,1.65c0,.13,0,.26,0,.38-.16,1.37-.33,2.73-.52,4.09s-.35,2.56-.55,3.84c-.08.57-.17,1.13-.26,1.69-.13.82-.26,1.63-.4,2.45-.1.59-.2,1.17-.31,1.76-.48,2.68-1,5.35-1.58,8-.13.62-.27,1.24-.4,1.85-.19.86-.39,1.73-.6,2.6-.34,1.46-.69,2.92-1.07,4.37-.21.84-.44,1.69-.67,2.54-.16.62-.33,1.23-.5,1.84-.4,1.46-.81,2.91-1.25,4.37-.17.57-.34,1.15-.52,1.73-.31,1-.63,2-1,3.05s-.73,2.23-1.1,3.34-.68,2-1,3c-.22.62-.44,1.24-.67,1.86s-.52,1.43-.79,2.14q-1.07,2.85-2.22,5.7c-.35.87-.7,1.73-1.07,2.6s-.66,1.56-1,2.34c-.47,1.09-1,2.19-1.45,3.28-.39.88-.79,1.75-1.2,2.62q-1.37,2.94-2.83,5.86c-.42.84-.84,1.68-1.28,2.52-.93,1.82-1.9,3.64-2.89,5.44-.19.35-.38.7-.58,1.05-.34.61-.68,1.23-1,1.84l-.3.52c-.71,1.24-1.43,2.48-2.17,3.71-.4.67-.8,1.34-1.21,2-.56.94-1.14,1.87-1.73,2.8-.42.68-.85,1.35-1.29,2q-.45.72-.93,1.44-1,1.59-2.1,3.15c-1.43,2.13-2.91,4.23-4.43,6.32l.47.4L781,412.54l-59.24,70.33-14.2,16.87a135.77,135.77,0,0,1,29.33,38.1c19.68,38.72,36.54,73.82,49.81,94-16-12.12-42.49-27.31-81.82-35.3-2.28-.46-4.62-.91-7-1.32q-6.92-1.2-13.41-2.84-6.16-1.53-12-3.4c-.89-.28-1.78-.58-2.66-.88a190.09,190.09,0,0,1-27.05-11.49l-2.33,2.76-10.39,12.35-71.49,84.89-27.63,32.81h0L506.08,739,505,740.22l-.21-.18-2.5-2.11L500,736l-6.64-5.59L465.61,707l-13.82-11.64-9.33-7.85L430.31,677.3l-2-1.66-7.65-6.45L413.29,663l-29.07-24.48-14.57-12.27-5.25-4.42-2.41-2-12.53-10.56-21.38-18-2.78-2.34-.27-.23-8.91-7.5L305,571.73l-12.4-10.44-2.17-1.83-6.16-5.2h0l0,0-8.38-7.07,0,0-23.37-19.68-3.68-3.1-.61-.51-14.51-12.22-9.37-7.9-3.35-2.81-1.73-1.46h0l-5.65-4.75L196.39,480.3l-48.94-41.21c-.86-.72-1.71-1.45-2.55-2.18l-.5-.44-.19-.16c-.87-.76-1.72-1.52-2.57-2.28-.58-.52-1.16-1-1.73-1.57l-.43-.4-.49-.45-1.23-1.14-.13-.13-.16-.15c-.72-.67-1.42-1.35-2.12-2l-1-.94-.7-.69c-.38-.37-.76-.75-1.12-1.12l-.08-.08c-1.18-1.17-2.33-2.36-3.48-3.55l-1.46-1.54c-.51-.54-1-1.09-1.52-1.64l-.8-.87c-.43-.46-.85-.93-1.26-1.39-.24-.25-.47-.51-.7-.77l-1.16-1.32c-.69-.79-1.38-1.59-2.06-2.39-.46-.53-.91-1.06-1.36-1.6l-.33-.39q-1-1.17-1.92-2.34l-.3-.37c-.54-.66-1.06-1.32-1.58-2-.3-.36-.58-.73-.86-1.09s-.73-.93-1.08-1.4-.58-.74-.86-1.12a2.56,2.56,0,0,1-.2-.26c-.57-.74-1.13-1.49-1.68-2.24l-.27-.36-.35-.48-.57-.79-.3-.41-.48-.66-.61-.87-.3-.41-.43-.62c-.47-.66-.93-1.33-1.39-2l-1-1.41c-.58-.85-1.15-1.71-1.71-2.57l-.14-.21c-.61-.93-1.21-1.86-1.8-2.8l-.18-.28c-.11-.17-.22-.34-.32-.51-.59-.93-1.16-1.86-1.73-2.8-.42-.69-.84-1.38-1.25-2.08l-.44-.73L95.4,377c-.17-.3-.35-.6-.52-.91l-.34-.6-.38-.67-.33-.58c-.06-.13-.13-.25-.2-.37-.38-.68-.75-1.36-1.12-2,0,0-.05-.09-.08-.14-.33-.6-.65-1.21-1-1.82-.44-.83-.88-1.66-1.31-2.5l-1-2c-.25-.49-.49-1-.73-1.47-.17-.33-.33-.66-.49-1s-.28-.56-.41-.84c0-.09-.09-.18-.13-.27l-.13-.27-.18-.38-.8-1.7c-.05-.08-.08-.17-.12-.25-.22-.47-.44-.94-.65-1.41-.13-.28-.26-.55-.38-.83l-.9-2-.36-.81c-.09-.22-.19-.44-.29-.67-.31-.72-.62-1.44-.92-2.16q-.35-.8-.66-1.59c-.15-.35-.3-.7-.44-1.06-.36-.88-.71-1.77-1.06-2.66-.14-.34-.28-.7-.41-1.05l-.06-.17c0-.08-.07-.15-.09-.22l-.09-.22-.12-.33c-.1-.26-.2-.51-.29-.77s-.19-.48-.27-.72c-.29-.75-.56-1.5-.83-2.25-.41-1.12-.81-2.24-1.2-3.37a2.25,2.25,0,0,0-.08-.24c-.19-.54-.37-1.07-.55-1.6q-1.35-4-2.53-8-.66-2.25-1.29-4.5l-.61-2.26c-.39-1.51-.78-3-1.15-4.53l-.54-2.28c-.34-1.47-.67-2.95-1-4.44l-.09-.43c-.14-.66-.28-1.32-.41-2l-.45-2.3c-.11-.59-.23-1.18-.33-1.78q-.3-1.6-.57-3.21c-.11-.63-.21-1.27-.31-1.9-.25-1.54-.48-3.07-.69-4.61-.11-.74-.2-1.47-.3-2.2,0-.13,0-.27-.06-.41-.18-1.44-.35-2.89-.51-4.34-.08-.77-.17-1.54-.24-2.32s-.15-1.54-.22-2.32q-.54-6-.76-11.94c0-.84-.07-1.68-.09-2.51q-.09-3.26-.09-6.51c0-1.44,0-2.88,0-4.32s.06-2.75.11-4.12c0-.12,0-.23,0-.34,0-1.39.11-2.78.19-4.17s.17-2.87.28-4.31c0-.06,0-.12,0-.18.1-1.38.22-2.76.35-4.13s.27-2.86.43-4.29c0,0,0,0,0,0,.15-1.32.31-2.64.48-4,0-.16,0-.32.07-.49q.27-2.06.57-4.11c.24-1.69.51-3.38.8-5.06s.62-3.52,1-5.28c.15-.78.31-1.57.47-2.35.27-1.3.54-2.59.83-3.88.13-.59.26-1.17.4-1.76s.28-1.22.44-1.83c.31-1.31.63-2.61,1-3.91.12-.48.24-1,.37-1.43.29-1.1.59-2.19.9-3.29s.64-2.23,1-3.35.62-2.06,1-3.09c.16-.56.34-1.12.53-1.68,0-.05,0-.1,0-.14.32-1,.64-2,1-2.95.08-.23.16-.46.23-.69.41-1.19.82-2.37,1.24-3.55h0c.48-1.33,1-2.66,1.47-4,.26-.68.52-1.37.79-2.05.14-.37.28-.73.43-1.1.31-.79.63-1.58,1-2.36.24-.6.49-1.2.74-1.79q1.88-4.51,4-8.95Q90.11,153,94.66,145c.47-.82.94-1.64,1.42-2.46s1-1.64,1.45-2.45,1-1.63,1.49-2.44c2.5-4,5.14-8,7.91-12,.48-.68,1-1.36,1.45-2l1.4-1.92q3-4.08,6.22-8.06c.53-.66,1.06-1.31,1.6-2s1.08-1.3,1.62-2q2-2.37,4-4.67c.86-1,1.72-1.92,2.59-2.87,1.86-2,3.74-4,5.67-6,.72-.74,1.45-1.47,2.18-2.19a4.17,4.17,0,0,1,.37-.36c.67-.66,1.33-1.31,2-2l.87-.84,1.68-1.6,1-1,1.69-1.54q1.23-1.12,2.49-2.22l1.51-1.32,1.85-1.58q.56-.48,1.11-.93,2.66-2.24,5.37-4.36c.33-.26.66-.52,1-.77.69-.55,1.38-1.08,2.08-1.6l1.57-1.19c1.7-1.27,3.41-2.52,5.14-3.73l1.68-1.17,2.65-1.81,2.64-1.75,1.9-1.21c.46-.31.93-.6,1.4-.89l1.14-.71c.84-.53,1.68-1,2.53-1.54.4-.24.8-.49,1.2-.72.91-.55,1.82-1.09,2.74-1.61l1.6-.91q3-1.71,6.06-3.31l2.43-1.26h0l1.94-1q4.57-2.29,9.25-4.37l2.07-.91c.93-.41,1.87-.81,2.82-1.21l3.2-1.31c.89-.36,1.78-.71,2.68-1l.15-.06,2-.77,3.51-1.29c1.14-.41,2.29-.81,3.44-1.2l.26-.09c.81-.27,1.62-.55,2.44-.81q.66-.22,1.32-.42c1-.33,2-.64,3-1l.76-.23c1.11-.34,2.22-.66,3.34-1h0q.44-.13.87-.24c.92-.27,1.84-.52,2.76-.77l.88-.23,2.52-.65q4.59-1.15,9.21-2.12c1.17-.25,2.35-.49,3.53-.71l.15,0q1.69-.33,3.39-.63l.8-.14c1.22-.22,2.44-.42,3.67-.61l.57-.09c1-.16,2-.31,3-.45l.88-.12c1.2-.17,2.4-.33,3.6-.47l.17,0,3.53-.4,1-.1,3-.29,1-.09,3.41-.26.27,0c1.24-.09,2.49-.16,3.73-.23s2.3-.11,3.45-.15l1.58-.06c1.12,0,2.24-.07,3.36-.08,1.36,0,2.72,0,4.08,0,1.19,0,2.37,0,3.56,0s2.38,0,3.56.08c2,.06,4,.14,6,.26l1.84.11q2.75.16,5.49.42.71,0,1.41.12c2.1.19,4.21.42,6.31.68q3.72.43,7.42,1c1.17.17,2.33.36,3.5.56s2.35.4,3.52.62q3.94.74,7.87,1.6l2.37.53,2.09.5,2,.5c1.12.28,2.23.56,3.34.86q3.21.85,6.39,1.8c3.68,1.1,7.33,2.28,11,3.57,1,.36,2.09.74,3.13,1.13l.31.11q1.54.57,3.09,1.17c1,.39,2,.78,3,1.19l1,.41L389.07,45c1.2.51,2.39,1,3.58,1.55l3.07,1.39,0,0c1.11.51,2.22,1,3.32,1.56.83.39,1.66.8,2.49,1.22,1.14.55,2.27,1.12,3.4,1.71l1.47.76,2.16,1.15.32.17a233.38,233.38,0,0,1,25.38,15.9L436.51,72c1.42,1,2.82,2.11,4.22,3.19l1.35,1q3.29,2.56,6.49,5.27l.48.4c.73-.75,1.47-1.5,2.21-2.24q1.92-1.94,3.9-3.82c.69-.65,1.38-1.31,2.08-2s1.21-1.13,1.82-1.68c.79-.73,1.58-1.44,2.39-2.15.62-.56,1.25-1.11,1.89-1.66.79-.69,1.59-1.38,2.39-2l2.17-1.81c.69-.57,1.38-1.14,2.08-1.7q3-2.45,6.12-4.76c.72-.55,1.44-1.08,2.17-1.61.38-.29.77-.57,1.16-.85l1.84-1.32c.75-.54,1.52-1.07,2.28-1.6l2.19-1.49,2.14-1.44c2.32-1.52,4.66-3,7-4.44.47-.29.94-.58,1.42-.86,1.45-.87,2.91-1.73,4.38-2.56.84-.48,1.69-1,2.55-1.43,2.38-1.32,4.79-2.59,7.21-3.82l1.57-.79,1.56-.77c.87-.43,1.75-.85,2.62-1.26s1.75-.83,2.63-1.23l2.65-1.19c.88-.4,1.77-.78,2.66-1.16s1.93-.83,2.9-1.22l2.45-1c.9-.36,1.79-.71,2.69-1l2.62-1,.09,0c1.8-.67,3.62-1.31,5.44-1.94l2.79-.94,2.69-.86c.91-.29,1.83-.58,2.75-.85l2.76-.82q2.77-.8,5.56-1.53l2.78-.71q2.79-.7,5.6-1.33c1.87-.42,3.74-.82,5.62-1.18s3.76-.72,5.65-1.05l2.86-.48c2.13-.34,4.25-.65,6.39-.93L589,13q4.8-.56,9.62-.93c2.15-.16,4.29-.3,6.44-.4q6.63-.33,13.27-.27c.43,0,.86,0,1.29,0l1.8,0c.87,0,1.73,0,2.6.07l2.21.08c.92,0,1.84.08,2.77.13s1.66.09,2.49.15L634,12c.83.05,1.66.12,2.49.2l1.82.16c1.05.09,2.1.19,3.15.31.25,0,.51.05.76.09.93.09,1.86.2,2.78.32l1.42.18c.9.11,1.79.23,2.69.36l2,.29c1.11.16,2.23.33,3.34.52s2.15.35,3.22.55c1.23.22,2.47.45,3.7.69.7.14,1.39.27,2.08.42.91.18,1.81.37,2.72.57.59.13,1.17.25,1.75.39s.89.19,1.33.3l3.87.93.65.16,1.61.41,3.51.94q2,.55,4,1.14l.12,0,2.8.85L689.53,23q3.11,1,6.19,2.13c.64.22,1.28.46,1.91.7q8.61,3.18,17,7.09c.66.3,1.32.62,2,.93q7.18,3.41,14.18,7.35l1.62.92c.89.5,1.76,1,2.64,1.53q2.31,1.38,4.61,2.8l1.91,1.2c.22.14.44.27.65.42q5.36,3.42,10.57,7.18l.07,0c.65.47,1.29.93,1.93,1.41.9.66,1.79,1.32,2.67,2l1.43,1.09.82.64q2.07,1.61,4.12,3.28L765.42,65,767,66.3c.82.7,1.64,1.39,2.45,2.1q2.08,1.8,4.11,3.64c.54.49,1.09,1,1.62,1.48l.28.26.64.6c1.79,1.66,3.55,3.36,5.27,5.07.72.71,1.42,1.42,2.12,2.14.47.47.94,1,1.4,1.43q1.65,1.71,3.26,3.46l1.15,1.25c2.43,2.65,4.79,5.36,7.06,8.1.57.67,1.12,1.35,1.67,2,.37.45.74.9,1.09,1.36s.73.9,1.08,1.36a2.5,2.5,0,0,1,.26.33c.42.52.82,1,1.22,1.56.67.86,1.33,1.73,2,2.61.8,1.06,1.58,2.12,2.34,3.19.62.85,1.23,1.7,1.82,2.56.72,1,1.44,2.07,2.15,3.11,1.41,2.08,2.78,4.17,4.13,6.29h0c.67,1.06,1.33,2.12,2,3.19s1.29,2.14,1.92,3.21,1.26,2.16,1.87,3.24,1.12,2,1.66,3q2.63,4.78,5,9.68c.27.53.52,1.06.77,1.6.35.72.69,1.43,1,2.15l.13.28c.44,1,.87,1.9,1.3,2.85.56,1.26,1.12,2.53,1.66,3.8.34.79.67,1.58,1,2.38q1.79,4.31,3.39,8.69c.25.67.49,1.34.73,2s.42,1.18.62,1.77q.48,1.35.93,2.73c.23.67.45,1.34.67,2s.36,1.1.53,1.66q.94,3,1.81,6c.15.51.29,1,.43,1.52.24.86.48,1.71.7,2.57.32,1.18.63,2.37.92,3.56s.57,2.3.84,3.45c0,.07,0,.13,0,.19.18.79.36,1.57.53,2.36l.33,1.51c.3,1.39.59,2.79.86,4.19.18.89.35,1.77.51,2.66.26,1.41.51,2.82.74,4.23.15.9.3,1.79.43,2.69,0,.22.07.44.1.66.13.86.26,1.72.38,2.59,0,.29.09.59.12.89.14,1,.27,2,.39,3,.17,1.38.32,2.76.47,4.14.31,3,.57,6,.76,9,.07,1,.13,2.07.19,3.11s.1,2.08.14,3.12c0,.76.06,1.52.08,2.29C850.14,241.52,850.17,244.92,850.13,248.31Z" transform="translate(-64.27 -11.35)" fill="#ffbc44"/><path d="M805.86,649.85c-5.11.36-11.56-6.34-19.19-18C799.88,641.91,805.86,649.85,805.86,649.85Z" transform="translate(-64.27 -11.35)" fill="#ffbc44"/><path d="M850.13,248.31c0,.65,0,1.3,0,2,0,.85,0,1.7-.07,2.55s0,1.41-.07,2.11q-.23,5.34-.69,10.67s0,.07,0,.11c-.08,1-.17,1.9-.27,2.86-.06.62-.13,1.24-.2,1.87s-.11,1.1-.18,1.65c0,.13,0,.26,0,.38-.16,1.37-.33,2.73-.52,4.09s-.35,2.56-.55,3.84c-.08.57-.17,1.13-.26,1.69-.13.82-.26,1.63-.4,2.45-.1.59-.2,1.17-.31,1.76-.48,2.68-1,5.35-1.58,8-.13.62-.27,1.24-.4,1.85-.19.86-.39,1.73-.6,2.6-.34,1.46-.69,2.92-1.07,4.37-.21.84-.44,1.69-.67,2.54-.16.62-.33,1.23-.5,1.84-.4,1.46-.81,2.91-1.25,4.37-.17.57-.34,1.15-.52,1.73-.31,1-.63,2-1,3.05s-.73,2.23-1.1,3.34-.68,2-1,3c-.22.62-.44,1.24-.67,1.86s-.52,1.43-.79,2.14q-1.07,2.85-2.22,5.7c-.35.87-.7,1.73-1.07,2.6s-.66,1.56-1,2.34c-.47,1.09-1,2.19-1.45,3.28-.39.88-.79,1.75-1.2,2.62q-1.37,2.94-2.83,5.86c-.42.84-.84,1.68-1.28,2.52-.93,1.82-1.9,3.64-2.89,5.44-.19.35-.38.7-.58,1.05-.34.61-.68,1.23-1,1.84l-.3.52c-.71,1.24-1.43,2.48-2.17,3.71-.4.67-.8,1.34-1.21,2-.56.94-1.14,1.87-1.73,2.8-.42.68-.85,1.35-1.29,2q-.45.72-.93,1.44-1,1.59-2.1,3.15c-1.43,2.13-2.91,4.23-4.43,6.32l.47.4L781,412.54l-59.24,70.33-14.2,16.87a135.77,135.77,0,0,1,29.33,38.1c19.68,38.72,36.54,73.82,49.81,94-16-12.12-42.49-27.31-81.82-35.3-2.28-.46-4.62-.91-7-1.32q-6.92-1.2-13.41-2.84-6.16-1.53-12-3.4c-.89-.28-1.78-.58-2.66-.88a190.09,190.09,0,0,1-27.05-11.49l-2.33,2.76-10.39,12.35-71.49,84.89-27.63,32.81h0L506.08,739,505,740.22l-.21-.18-2.5-2.11L500,736l-6.64-5.59L465.61,707l-13.82-11.64-9.33-7.85L430.31,677.3l-2-1.66-7.65-6.45L413.29,663l-29.07-24.48-14.57-12.27-5.25-4.42-2.41-2-12.53-10.56-21.38-18-2.78-2.34-.27-.23-8.91-7.5L305,571.73l-12.4-10.44-2.17-1.83-6.16-5.2h0l0,0-8.38-7.07,0,0-23.37-19.68-3.68-3.1-.61-.51-14.51-12.22-9.37-7.9-3.35-2.81-1.73-1.46h0l-5.65-4.75L196.39,480.3l-48.94-41.21c-.86-.72-1.71-1.45-2.55-2.18l-.5-.44-.19-.16c-.87-.76-1.72-1.52-2.57-2.28-.58-.52-1.16-1-1.73-1.57l-.43-.4-.49-.45-1.23-1.14-.13-.13-.16-.15c-.72-.67-1.42-1.35-2.12-2l-1-.94-.7-.69-1.09-1.1,0,0-.08-.08c-1.18-1.17-2.33-2.36-3.48-3.55l-1.46-1.54c-.51-.54-1-1.09-1.52-1.64l-.8-.87c-.43-.46-.85-.93-1.26-1.39-.24-.25-.47-.51-.7-.77l-1.16-1.32c-.69-.79-1.38-1.59-2.06-2.39-.46-.53-.91-1.06-1.36-1.6l-.33-.39q-1-1.17-1.92-2.34l-.3-.37c-.54-.66-1.06-1.32-1.58-2-.3-.36-.58-.73-.86-1.09s-.73-.93-1.08-1.4-.58-.74-.86-1.12a2.56,2.56,0,0,1-.2-.26c-.57-.74-1.13-1.49-1.68-2.24l-.27-.36-.35-.48-.57-.79-.3-.41-.48-.66-.61-.87-.3-.41-.43-.62c-.47-.66-.93-1.33-1.39-2l-1-1.41c-.58-.85-1.15-1.71-1.71-2.57l-.14-.21c-.61-.93-1.21-1.86-1.8-2.8l-.18-.28c-.11-.17-.22-.34-.32-.51-.59-.93-1.16-1.86-1.73-2.8-.42-.69-.84-1.38-1.25-2.08l-.44-.73L95.4,377c-.17-.3-.35-.6-.52-.91l-.34-.6-.38-.67-.06-.12-.27-.46c-.06-.13-.13-.25-.2-.37-.38-.68-.75-1.36-1.12-2,0,0-.05-.09-.08-.14-.33-.6-.65-1.21-1-1.82-.44-.83-.88-1.66-1.31-2.5l-1-2c-.25-.49-.49-1-.73-1.47-.17-.33-.33-.66-.49-1s-.28-.56-.41-.84c0-.09-.09-.18-.13-.27l-.13-.27-.18-.38-.8-1.7c-.05-.08-.08-.17-.12-.25-.22-.47-.44-.94-.65-1.41-.13-.28-.26-.55-.38-.83l-.9-2-.36-.81c-.09-.22-.19-.44-.29-.67-.31-.72-.62-1.44-.92-2.16l-.4-.94c-.09-.21-.18-.43-.26-.65s-.3-.7-.44-1.06c-.36-.88-.71-1.77-1.06-2.66-.14-.34-.28-.7-.41-1.05l-.06-.17c0-.08-.07-.15-.09-.22l-.09-.22-.12-.33c-.1-.26-.2-.51-.29-.77s-.19-.48-.27-.72c-.29-.75-.56-1.5-.83-2.25-.41-1.12-.81-2.24-1.2-3.37a2.25,2.25,0,0,0-.08-.24c-.19-.54-.37-1.07-.55-1.6s-.29-.89-.43-1.33c-.73-2.23-1.43-4.46-2.1-6.71q-.66-2.25-1.29-4.5l-.61-2.26c-.39-1.51-.78-3-1.15-4.53l-.54-2.28c-.34-1.47-.67-2.95-1-4.44l-.09-.43c-.14-.66-.28-1.32-.41-2l-.45-2.3c-.11-.59-.23-1.18-.33-1.78q-.3-1.6-.57-3.21c-.11-.63-.21-1.27-.31-1.9-.25-1.54-.48-3.07-.69-4.61-.11-.74-.2-1.47-.3-2.2,0-.13,0-.27-.06-.41-.18-1.44-.35-2.89-.51-4.34-.08-.77-.17-1.54-.24-2.32s-.15-1.54-.22-2.32q-.54-6-.76-11.94c0-.84-.07-1.68-.09-2.51q-.09-3.26-.09-6.51c0-1.44,0-2.88,0-4.32s.06-2.75.11-4.12c0-.12,0-.23,0-.34,0-1.39.11-2.78.19-4.17s.17-2.87.28-4.31c0-.06,0-.12,0-.18.1-1.38.22-2.76.35-4.13s.27-2.86.43-4.29c0,0,0,0,0,0,.15-1.32.31-2.64.48-4,0-.16,0-.32.07-.49q.27-2.06.57-4.11c.24-1.69.51-3.38.8-5.06s.62-3.52,1-5.28c.15-.78.31-1.57.47-2.35.27-1.3.54-2.59.83-3.88.13-.59.26-1.17.4-1.76s.28-1.22.44-1.83c.31-1.31.63-2.61,1-3.91.12-.48.24-1,.37-1.43.29-1.1.59-2.19.9-3.29s.64-2.23,1-3.35.62-2.06,1-3.09c.16-.56.34-1.12.53-1.68,0-.05,0-.1,0-.14.32-1,.64-2,1-2.95.08-.23.16-.46.23-.69.41-1.19.82-2.37,1.24-3.55h0c.48-1.33,1-2.66,1.47-4,.26-.68.52-1.37.79-2.05.14-.37.28-.73.43-1.1.31-.79.63-1.58,1-2.36.24-.6.49-1.2.74-1.79q1.88-4.51,4-8.95Q90.11,153,94.66,145c.47-.82.94-1.64,1.42-2.46s1-1.64,1.45-2.45,1-1.63,1.49-2.44c2.5-4,5.14-8,7.91-12,.48-.68,1-1.36,1.45-2l1.4-1.92q3-4.08,6.22-8.06c.53-.66,1.06-1.31,1.6-2s1.08-1.3,1.62-2q2-2.37,4-4.67c.86-1,1.72-1.92,2.59-2.87,1.86-2,3.74-4,5.67-6,.72-.74,1.45-1.47,2.18-2.19a4.17,4.17,0,0,1,.37-.36c.67-.66,1.33-1.31,2-2l.87-.84,1.68-1.6,1-1,1.69-1.54q1.23-1.12,2.49-2.22l1.51-1.32,1.85-1.58q.56-.48,1.11-.93,2.66-2.24,5.37-4.36c.33-.26.66-.52,1-.77.69-.55,1.38-1.08,2.08-1.6l1.57-1.19c1.7-1.27,3.41-2.52,5.14-3.73l1.68-1.17,2.65-1.81,2.64-1.75,1.9-1.21c.46-.31.93-.6,1.4-.89l1.14-.71c.84-.53,1.68-1,2.53-1.54.4-.24.8-.49,1.2-.72.91-.55,1.82-1.09,2.74-1.61l1.6-.91q3-1.71,6.06-3.31l2.43-1.26h0l1.94-1q4.57-2.29,9.25-4.37l2.07-.91c.93-.41,1.87-.81,2.82-1.21l3.2-1.31c.89-.36,1.78-.71,2.68-1l.15-.06,2-.77,3.51-1.29c1.14-.41,2.29-.81,3.44-1.2l.26-.09c.81-.27,1.62-.55,2.44-.81q.66-.22,1.32-.42c1-.33,2-.64,3-1l.76-.23c1.11-.34,2.22-.66,3.34-1h0q.44-.13.87-.24c.92-.27,1.84-.52,2.76-.77l.88-.23,2.52-.65q4.59-1.15,9.21-2.12c1.17-.25,2.35-.49,3.53-.71l.15,0q1.69-.33,3.39-.63l.8-.14c1.22-.22,2.44-.42,3.67-.61l.57-.09c1-.16,2-.31,3-.45l.88-.12c1.2-.17,2.4-.33,3.6-.47l.17,0,3.53-.4,1-.1,3-.29,1-.09,3.41-.26.27,0c1.24-.09,2.49-.16,3.73-.23s2.3-.11,3.45-.15l1.58-.06c1.12,0,2.24-.07,3.36-.08,1.36,0,2.72,0,4.08,0,1.19,0,2.37,0,3.56,0s2.38,0,3.56.08c2,.06,4,.14,6,.26l1.84.11q2.75.16,5.49.42.71,0,1.41.12c2.11.2,4.21.42,6.31.68q3.72.43,7.42,1c1.17.17,2.33.36,3.5.56s2.35.4,3.52.62q3.94.74,7.87,1.6l2.37.53,2.09.5,2,.5c1.12.28,2.23.56,3.34.86q3.21.85,6.39,1.8c3.68,1.1,7.33,2.28,11,3.57,1,.36,2.09.74,3.13,1.13l.31.11q1.54.57,3.09,1.17c1,.39,2,.78,3,1.19l1,.41L389.07,45c1.2.51,2.39,1,3.58,1.55l3.07,1.39,0,0c1.11.51,2.22,1,3.32,1.56.83.39,1.66.8,2.49,1.22,1.14.55,2.27,1.12,3.4,1.71l1.47.76,2.16,1.15.32.17a233.38,233.38,0,0,1,25.38,15.9L436.51,72c1.42,1,2.82,2.11,4.22,3.19l1.35,1q3.29,2.56,6.49,5.27l.48.4c.73-.75,1.47-1.5,2.21-2.24q1.92-1.94,3.9-3.82c.69-.65,1.38-1.31,2.08-2s1.21-1.13,1.82-1.68c.79-.73,1.58-1.44,2.39-2.15.62-.56,1.25-1.11,1.89-1.66.79-.69,1.59-1.38,2.39-2l2.17-1.81c.69-.57,1.38-1.14,2.08-1.7q3-2.45,6.12-4.76c.72-.55,1.44-1.08,2.17-1.61.38-.29.77-.57,1.16-.85l1.84-1.32c.75-.54,1.52-1.07,2.28-1.6l2.19-1.49,2.14-1.44c2.32-1.52,4.66-3,7-4.44.47-.29.94-.58,1.42-.86,1.45-.87,2.91-1.73,4.38-2.56.84-.48,1.69-1,2.55-1.43,2.38-1.32,4.79-2.59,7.21-3.82l1.57-.79,1.56-.77c.87-.43,1.75-.85,2.62-1.26s1.75-.83,2.63-1.23l2.65-1.19c.88-.4,1.77-.78,2.66-1.16s1.93-.83,2.9-1.22l2.45-1c.9-.36,1.79-.71,2.69-1l2.62-1,.09,0c1.8-.67,3.62-1.31,5.44-1.94l2.79-.94,2.69-.86c.91-.29,1.83-.58,2.75-.85l2.76-.82q2.77-.8,5.56-1.53l2.78-.71c1.86-.47,3.73-.92,5.6-1.33s3.74-.82,5.62-1.18,3.76-.72,5.65-1.05l2.86-.48c2.13-.34,4.25-.65,6.39-.93L589,13q4.8-.57,9.62-.93c2.15-.16,4.29-.3,6.44-.4q6.63-.33,13.27-.27c.43,0,.86,0,1.29,0l1.8,0c.87,0,1.73,0,2.6.07l2.21.08c.92,0,1.84.08,2.77.13s1.66.09,2.49.15L634,12c.83.05,1.66.12,2.49.2l1.82.16c1.05.09,2.1.19,3.15.31.25,0,.51.05.76.09.93.09,1.86.2,2.78.32l1.42.18c.9.11,1.79.23,2.69.36l2,.29c1.11.16,2.23.33,3.34.52s2.15.35,3.22.55c1.23.22,2.47.45,3.7.69.7.14,1.39.27,2.08.42.91.18,1.81.37,2.72.57.59.13,1.17.25,1.75.39s.89.19,1.33.3l3.87.93.65.16,1.61.41,3.51.94q2,.55,4,1.14l.12,0,2.8.85c.94.29,1.87.58,2.8.89l1,.32q3.11,1,6.19,2.13c.64.22,1.28.46,1.91.7q8.61,3.18,17,7.09c.66.3,1.32.62,2,.93q7.18,3.41,14.18,7.35l1.62.92c.89.5,1.76,1,2.64,1.53q2.31,1.38,4.61,2.8l1.91,1.2c.22.14.44.27.65.42q5.36,3.42,10.57,7.18l.07,0c.65.47,1.29.93,1.93,1.41.9.66,1.79,1.32,2.67,2l1.43,1.09.82.64q2.07,1.61,4.12,3.28L765.42,65,767,66.3c.82.7,1.64,1.39,2.45,2.1q2.08,1.8,4.11,3.64c.54.49,1.09,1,1.62,1.48l.28.26.64.6c1.79,1.66,3.55,3.36,5.27,5.07.72.71,1.42,1.42,2.12,2.14.47.47.94,1,1.4,1.43q1.65,1.71,3.26,3.46l1.15,1.25c2.43,2.65,4.79,5.36,7.06,8.1.57.67,1.12,1.35,1.67,2,.37.45.74.9,1.09,1.36s.73.9,1.08,1.36a2.5,2.5,0,0,1,.26.33c.42.52.82,1,1.22,1.56.67.86,1.33,1.73,2,2.61.8,1.06,1.58,2.12,2.34,3.19.62.85,1.23,1.7,1.82,2.56.72,1,1.44,2.07,2.15,3.11,1.41,2.08,2.78,4.17,4.13,6.29h0c.67,1.06,1.33,2.12,2,3.19s1.29,2.14,1.92,3.21,1.26,2.16,1.87,3.24,1.12,2,1.66,3q2.63,4.78,5,9.68c.27.53.52,1.06.77,1.6.35.72.69,1.43,1,2.15l.13.28c.44,1,.87,1.9,1.3,2.85.56,1.26,1.12,2.53,1.66,3.8.34.79.67,1.58,1,2.38q1.79,4.31,3.39,8.69c.25.67.49,1.34.73,2s.42,1.18.62,1.77q.48,1.35.93,2.73c.23.67.45,1.34.67,2s.36,1.1.53,1.66q.94,3,1.81,6c.15.51.29,1,.43,1.52.24.86.48,1.71.7,2.57.32,1.18.63,2.37.92,3.56s.57,2.3.84,3.45c0,.07,0,.13,0,.19.18.79.36,1.57.53,2.36l.33,1.51c.3,1.39.59,2.79.86,4.19.18.89.35,1.77.51,2.66.26,1.41.51,2.82.74,4.23.15.9.3,1.79.43,2.69,0,.22.07.44.1.66.13.86.26,1.72.38,2.59,0,.29.09.59.12.89.14,1,.27,2,.39,3,.17,1.38.32,2.76.47,4.14.31,3,.57,6,.76,9,.07,1,.13,2.07.19,3.11s.1,2.08.14,3.12c0,.76.06,1.52.08,2.29C850.14,241.52,850.17,244.92,850.13,248.31Z" transform="translate(-64.27 -11.35)" fill="url(#589cf496-c030-4af0-a6a1-dabcf63dc25d)"/><path d="M819.53,360.8c-.71,1.24-1.43,2.48-2.17,3.71-.4.67-.8,1.34-1.21,2-.56.94-1.14,1.87-1.73,2.8-.42.68-.85,1.35-1.29,2q-.45.72-.93,1.44-1,1.59-2.1,3.15c-1.43,2.13-2.91,4.23-4.43,6.32l.47.4L781,412.54l-59.24,70.33q-16.74,3.93-34,6.76c-36.78,6-75.91,11.91-116,17.14l-7.34.94-.68.09-1.32.17-6.88.87c-2.89.36-5.78.72-8.67,1.06-2.13.27-4.27.53-6.4.78l-2.66.32c-45.66,5.44-92,9.86-137.07,12.52l-2.46.14c-3.58.21-7.14.41-10.7.59q-8,.42-15.91.75c-21.22.89-42,1.35-62.24,1.29q-7.26,0-14.41-.13l-4.73-.08-2-.05c-3.26-.07-6.5-.15-9.72-.26q-8.16-.25-16.15-.64c-2.71-.13-5.4-.28-8.07-.43l-5.64-.35-.61-.51-14.51-12.22-9.37-7.9-3.35-2.81-1.73-1.46h0l-5.65-4.75L196.39,480.3l-48.94-41.21c-.86-.72-1.71-1.45-2.55-2.18l-.5-.44-.19-.16c-.87-.76-1.72-1.52-2.57-2.28-.58-.52-1.16-1-1.73-1.57l-.43-.4-.49-.45-1.23-1.14-.13-.13-.16-.15c-.72-.67-1.42-1.35-2.12-2l-.28-.26-1.4-1.37c-.37-.36-.73-.73-1.09-1.1a.35.35,0,0,1-.11-.1c-1.18-1.17-2.33-2.36-3.48-3.55l-1.46-1.54c-.51-.54-1-1.09-1.52-1.64l-.8-.87c-.43-.46-.85-.93-1.26-1.39-.24-.25-.47-.51-.7-.77l-1.16-1.32c-.69-.79-1.38-1.59-2.06-2.39-.46-.53-.91-1.06-1.36-1.6l-.33-.39-.27-.32c-.55-.67-1.11-1.34-1.65-2l-.3-.37c-.54-.66-1.06-1.32-1.58-2-.3-.36-.58-.73-.86-1.09s-.73-.93-1.08-1.4-.58-.74-.86-1.12a2.56,2.56,0,0,1-.2-.26l-1.26-1.67-.42-.57-.27-.36-.35-.48-.57-.79-.3-.41-.48-.66-.61-.87-.3-.41-.43-.62c-.47-.66-.93-1.33-1.39-2l-1-1.41c-.58-.85-1.15-1.71-1.71-2.57l-.14-.21c-.61-.93-1.21-1.86-1.8-2.8l-.18-.28c-.11-.17-.22-.34-.32-.51-.59-.93-1.16-1.86-1.73-2.8-.42-.69-.84-1.38-1.25-2.08l-.44-.73L95.4,377c-.17-.3-.35-.6-.52-.91l-.34-.6-.38-.67-.06-.12-.27-.46c-.06-.13-.13-.25-.2-.37-.38-.68-.75-1.37-1.12-2,0,0-.05-.09-.08-.14-.33-.6-.65-1.21-1-1.82-.44-.83-.88-1.66-1.31-2.5l-1-2c-.25-.49-.49-1-.73-1.47-.17-.33-.33-.66-.49-1s-.28-.56-.41-.84c0-.09-.09-.18-.13-.27l-.13-.27-.18-.38-.8-1.7c-.05-.08-.08-.17-.12-.25-.22-.47-.44-.94-.65-1.41-.13-.28-.26-.55-.38-.83l-.9-2-.36-.81c-.09-.22-.19-.44-.29-.67l140.11,1.41H225l5,.05,10,.1,7.51.08h2l7,.07,44.91.45,58.88.59h0l54.1.55,2.41,0,6.72.07,9.17.09L439,357l1.22,0H441l6.38.07Z" transform="translate(-64.27 -11.35)" fill="#ffbc44" opacity="0.1"/><path d="M803.64,105.08H123.26c.86-1,1.72-1.92,2.59-2.87,1.86-2,3.74-4,5.67-6,.72-.74,1.45-1.47,2.18-2.19a4.17,4.17,0,0,1,.37-.36c.67-.66,1.33-1.31,2-2l.87-.84,1.68-1.6,1-1,1.69-1.54q1.23-1.12,2.49-2.22l1.51-1.32,1.85-1.58q.56-.48,1.11-.93,2.66-2.24,5.37-4.36c.33-.26.66-.52,1-.77.69-.55,1.38-1.08,2.08-1.6l1.57-1.19c1.7-1.27,3.41-2.52,5.14-3.73l1.68-1.17,2.65-1.81,2.64-1.75,1.9-1.21c.46-.31.93-.6,1.4-.89l1.14-.71c.84-.53,1.68-1,2.53-1.54.4-.24.8-.49,1.2-.72.91-.55,1.82-1.09,2.74-1.61l1.6-.91q3-1.71,6.06-3.31l2.43-1.26h0l1.94-1q4.57-2.29,9.25-4.37l2.07-.91c.93-.41,1.87-.81,2.82-1.21l3.2-1.31c.89-.36,1.78-.71,2.68-1l.15-.06,2-.77,3.51-1.29c1.14-.41,2.29-.81,3.44-1.2l.26-.09c.81-.27,1.62-.55,2.44-.81q.66-.22,1.32-.42c1-.33,2-.64,3-1l.76-.23c1.11-.34,2.22-.66,3.34-1h0c58.61,13.1,118.56,18.34,175.23,18.92a233.38,233.38,0,0,1,25.38,15.9L436.51,72c1.42,1,2.82,2.11,4.22,3.19l1.35,1q3.29,2.56,6.49,5.27l.48.4c.73-.75,1.47-1.5,2.21-2.24q1.92-1.94,3.9-3.82c.69-.65,1.38-1.31,2.08-2s1.21-1.13,1.82-1.68c.79-.73,1.58-1.44,2.39-2.15.62-.56,1.25-1.11,1.89-1.66.79-.69,1.59-1.38,2.39-2l2.17-1.81c.69-.57,1.38-1.14,2.08-1.7q3-2.45,6.12-4.76c.72-.55,1.44-1.08,2.17-1.61.38-.29.77-.57,1.16-.85l1.84-1.32c.75-.54,1.52-1.07,2.28-1.6A1287.27,1287.27,0,0,0,636.49,34.63,225.5,225.5,0,0,0,683,21l2.8.85c.94.29,1.87.58,2.8.89l1,.32q3.11,1,6.19,2.13c.64.22,1.28.46,1.91.7q8.61,3.18,17,7.09c.66.3,1.32.62,2,.93q7.18,3.41,14.18,7.35l1.62.92c.89.5,1.76,1,2.64,1.53q2.31,1.38,4.61,2.8c.85.53,1.71,1.07,2.56,1.62q5.36,3.42,10.57,7.18l2,1.46c.9.66,1.79,1.32,2.67,2l2.25,1.73q2.07,1.61,4.12,3.28L765.42,65,767,66.3c.82.7,1.64,1.39,2.45,2.1q2.08,1.8,4.11,3.64c.54.49,1.09,1,1.62,1.48l.28.26.64.6c1.79,1.66,3.55,3.36,5.27,5.07.72.71,1.42,1.42,2.12,2.14.47.47.94,1,1.4,1.43q1.65,1.71,3.26,3.46l1.15,1.25c2.43,2.65,4.79,5.36,7.06,8.1.57.67,1.12,1.35,1.67,2,.37.45.74.9,1.09,1.36s.73.9,1.08,1.36a2.5,2.5,0,0,1,.26.33c.42.52.82,1,1.22,1.56C802.32,103.33,803,104.2,803.64,105.08Z" transform="translate(-64.27 -11.35)" fill="#ffbc44" opacity="0.1"/><path d="M252,296.85l0,0c.16.47.31.95.47,1.45l.47,1.54h6.28A9.93,9.93,0,0,1,252,296.85Zm0,0,0,0c.16.47.31.95.47,1.45l.47,1.54h6.28A9.93,9.93,0,0,1,252,296.85Zm0,0,0,0c.16.47.31.95.47,1.45l.47,1.54h6.28A9.93,9.93,0,0,1,252,296.85Zm0,0,0,0c.16.47.31.95.47,1.45l.47,1.54h6.28A9.93,9.93,0,0,1,252,296.85Zm0,0c.15.46.3.94.45,1.43s.32,1,.48,1.54h6.27A9.93,9.93,0,0,1,252,296.85Zm295.44-46.63-2.92-.15-1.41-.07-1.43-.08-.43,0-2-.1-9.42-.48-2-.1-9-.46-3.54-.18L186.22,231.81l-1.6-.09-26.73-1.36-4.27-.22-6.28-.32-2.9-.14-3.9-.2-3.92-.2-69.8-3.56q-.3,2.06-.57,4.11c0,.17,0,.33-.07.49-.17,1.33-.33,2.65-.48,4,0,0,0,0,0,0-.16,1.43-.3,2.86-.43,4.29s-.25,2.75-.35,4.13c0,.06,0,.12,0,.18-.11,1.44-.2,2.87-.28,4.31s-.14,2.78-.19,4.17c0,.11,0,.22,0,.34,0,1.37-.08,2.75-.11,4.12s0,2.88,0,4.32q0,3.26.09,6.51c0,.83,0,1.67.09,2.51q.22,6,.76,11.94c.07.78.14,1.55.22,2.32s.16,1.55.24,2.32c.16,1.45.33,2.9.51,4.34,0,.14,0,.28.06.41.1.73.19,1.46.3,2.2.21,1.54.44,3.07.69,4.61.1.63.2,1.27.31,1.9q.27,1.61.57,3.21c.1.6.22,1.19.33,1.78l.45,2.3c.13.65.27,1.31.41,2l.09.43c.31,1.49.64,3,1,4.44l.54,2.28c.37,1.51.76,3,1.15,4.53l.61,2.26Q73.3,324.7,74,327c.67,2.25,1.37,4.48,2.1,6.71l59.51,1.89,2.74.09L150,336l10.19.33,2.47.07,57.16,1.83,10.25.32L244,339h0l2.2.07,1.21,0,1.93.07,9.07.28,157,5h0l10.7.34h0l11.73.38,2,.06h0l.73,0h0l8.94.28L538,348.37l1.64.05h.2l12.07.38h.12l2.62.09,62.27,2,10.89.35,16.48.52.75,0,1.16,0,3,.1,3.87.12,9.44.3,158.94,5.06c1-1.8,2-3.62,2.89-5.44.44-.84.86-1.68,1.28-2.52q1.47-2.93,2.83-5.86c.41-.87.81-1.74,1.2-2.62.49-1.09,1-2.19,1.45-3.28.33-.78.67-1.56,1-2.34s.72-1.73,1.07-2.6q1.15-2.85,2.22-5.7c.27-.71.53-1.42.79-2.14s.45-1.24.67-1.86c.36-1,.7-2,1-3s.74-2.22,1.1-3.34.65-2,1-3.05c.18-.58.35-1.16.52-1.73.44-1.46.85-2.91,1.25-4.37.17-.61.34-1.22.5-1.84.23-.85.46-1.7.67-2.54.38-1.45.73-2.91,1.07-4.37.21-.87.41-1.74.6-2.6.13-.61.27-1.23.4-1.85.58-2.68,1.1-5.35,1.58-8,.11-.59.21-1.17.31-1.76.14-.82.27-1.63.4-2.45.09-.56.18-1.12.26-1.69.2-1.28.38-2.56.55-3.84s.36-2.72.52-4.09c0-.12,0-.25,0-.38q.1-.82.18-1.65c.07-.63.14-1.25.2-1.87.1-1,.19-1.91.27-2.86,0,0,0-.07,0-.11Zm-180.19,49.6H348.57c5.14,0,9.34,3.66,9.34,8.13s-4.2,8.12-9.34,8.12H240.32c-5-.1-9.13-3.71-9.13-8.12a7.85,7.85,0,0,1,3.76-6.51h0a10.14,10.14,0,0,1,5.56-1.62H259.2a9.93,9.93,0,0,1-7.2-3l0,0a7.47,7.47,0,0,1-2.12-5.14,5.22,5.22,0,0,1,0-.69v0c.41-4.14,4.43-7.41,9.3-7.41H245.86c-5.14,0-9.34-3.66-9.34-8.13s4.2-8.13,9.34-8.13H353.91c5.14,0,9.34,3.66,9.34,8.13s-4.2,8.13-9.34,8.13h13.34c5.13,0,9.34,3.65,9.34,8.12S372.38,299.82,367.25,299.82Zm-115.25-3,0,0c.16.47.31.95.47,1.45l.47,1.54h6.28A9.93,9.93,0,0,1,252,296.85Zm0,0,0,0c.16.47.31.95.47,1.45l.47,1.54h6.28A9.93,9.93,0,0,1,252,296.85Zm0,0,0,0c.16.47.31.95.47,1.45l.47,1.54h6.28A9.93,9.93,0,0,1,252,296.85Zm0,0,0,0c.16.47.31.95.47,1.45l.47,1.54h6.28A9.93,9.93,0,0,1,252,296.85Zm0,0,0,0c.16.47.31.95.47,1.45l.47,1.54h6.28A9.93,9.93,0,0,1,252,296.85Z" transform="translate(-64.27 -11.35)" fill="#ffbc44" opacity="0.1"/><path d="M85.08,169.36c0-4.47,4.2-8.12,9.33-8.12H86.24q-2.08,4.44-4,8.95c-.25.59-.5,1.19-.74,1.79-.32.78-.64,1.57-1,2.36-.15.37-.29.73-.43,1.1-.27.68-.53,1.37-.79,2.05h15C89.28,177.49,85.08,173.83,85.08,169.36ZM848.4,216.52c-.12-1-.25-2-.39-3,0-.3-.08-.6-.12-.89-.12-.87-.25-1.73-.38-2.59,0-.22-.06-.44-.1-.66-.13-.9-.28-1.79-.43-2.69-.23-1.41-.48-2.82-.74-4.23-.16-.89-.33-1.77-.51-2.66-.27-1.4-.56-2.8-.86-4.19l-.33-1.51c-.17-.79-.35-1.57-.53-2.36,0-.06,0-.12,0-.19q-.4-1.72-.84-3.45c-.29-1.19-.6-2.38-.92-3.56-.22-.86-.46-1.71-.7-2.57-.14-.51-.28-1-.43-1.52q-.87-3-1.81-6c-.17-.56-.35-1.11-.53-1.66s-.44-1.34-.67-2q-.45-1.38-.93-2.73c-.2-.59-.41-1.18-.62-1.77s-.48-1.35-.73-2q-1.6-4.38-3.39-8.69c-.33-.8-.66-1.59-1-2.38-.54-1.27-1.1-2.54-1.66-3.8-.43-.95-.86-1.9-1.3-2.85l-.13-.28c-.33-.72-.67-1.43-1-2.15-.25-.54-.5-1.07-.77-1.6q-2.38-4.89-5-9.68c-.54-1-1.1-2-1.66-3s-1.23-2.16-1.87-3.24-1.27-2.15-1.92-3.21-1.31-2.13-2-3.19h0c-1.35-2.12-2.72-4.21-4.13-6.29-.71-1-1.43-2.08-2.15-3.11L106.93,125.67c-2.77,3.92-5.41,7.92-7.91,12-.51.81-1,1.63-1.49,2.44s-1,1.63-1.45,2.45-1,1.64-1.42,2.46h94.46c5.14,0,9.34,3.66,9.34,8.13s-4.2,8.13-9.34,8.13h13.34c5.14,0,9.34,3.65,9.34,8.12s-4.2,8.13-9.34,8.13H183.79c5.13,0,9.34,3.66,9.34,8.13s-4.21,8.12-9.34,8.12h-108a9.72,9.72,0,0,1-1.8-.16c-.33,1.12-.66,2.23-1,3.35s-.61,2.19-.9,3.29c-.13.47-.25.95-.37,1.43-.34,1.3-.66,2.6-1,3.91-.16.61-.3,1.22-.44,1.83s-.27,1.17-.4,1.76c-.29,1.29-.56,2.58-.83,3.88-.16.78-.32,1.57-.47,2.35q-.53,2.64-1,5.28H848.87C848.72,219.28,848.57,217.9,848.4,216.52Z" transform="translate(-64.27 -11.35)" fill="#ffbc44" opacity="0.1"/><path d="M786.67,631.88c-16-12.12-42.49-27.31-81.82-35.3-2.28-.46-4.62-.91-7-1.32q-6.92-1.2-13.41-2.84-6.16-1.53-12-3.4c-.89-.28-1.78-.58-2.66-.88a190.09,190.09,0,0,1-27.05-11.49l-2.33,2.76-10.39,12.35-71.49,84.89-27.63,32.81h0L506.08,739,505,740.22l-.21-.18-2.5-2.11L500,736l-6.64-5.59L465.61,707l-13.82-11.64-9.33-7.85L430.31,677.3l-2-1.66-7.65-6.45L413.29,663l-29.07-24.48-14.57-12.27-5.25-4.42-2.41-2-12.53-10.56-21.38-18-2.78-2.34-.27-.23-8.91-7.5L305,571.73l-12.4-10.44-2.17-1.83-6.16-5.2h0l-8.45-7.12-23.37-19.68-3.68-3.1-.61-.51-14.51-12.22-9.37-7.9-3.35-2.81-1.73-1.46h0l-5.65-4.75L196.39,480.3l-48.94-41.21c-.86-.72-1.71-1.45-2.55-2.18l-.5-.44-.19-.16c-.87-.76-1.72-1.52-2.57-2.28-.58-.52-1.16-1-1.73-1.57l-.43-.4-.49-.45-1.23-1.14-.13-.13-.16-.15c-.72-.67-1.42-1.35-2.12-2l-1-.94-.7-.69-1.09-1.1,0,0-.08-.08c-1.18-1.17-2.33-2.36-3.48-3.55l-1.46-1.54c-.51-.54-1-1.09-1.52-1.64l-.8-.87c-.43-.46-.85-.93-1.26-1.39-.63-.69-1.25-1.39-1.86-2.09s-1.38-1.59-2.06-2.39c-.46-.53-.91-1.06-1.36-1.6l-.33-.39q-1-1.17-1.92-2.34l-.3-.37c-.54-.66-1.06-1.32-1.58-2-.3-.36-.58-.73-.86-1.09s-.73-.93-1.08-1.4-.58-.74-.86-1.12a2.56,2.56,0,0,1-.2-.26c-.57-.74-1.13-1.49-1.68-2.24l-.27-.36-.35-.48-.57-.79-.3-.41-1.09-1.53-.3-.41-.43-.62c-.47-.66-.93-1.33-1.39-2l-1-1.41c-.58-.85-1.15-1.71-1.71-2.57l-.14-.21c-.61-.93-1.21-1.86-1.8-2.8l-.18-.28c-.11-.17-.22-.34-.32-.51-.59-.93-1.16-1.86-1.73-2.8-.42-.69-.84-1.38-1.25-2.08l-.44-.73L95.4,377c-.17-.3-.35-.6-.52-.91l-.34-.6-.38-.67-.06-.12c-.16-.27-.31-.55-.47-.83-.38-.68-.75-1.36-1.12-2,0,0-.05-.09-.08-.14-.33-.6-.65-1.21-1-1.82-.44-.83-.88-1.66-1.31-2.5l-1-2c-.25-.49-.49-1-.73-1.47-.17-.33-.33-.66-.49-1s-.28-.56-.41-.84c0-.09-.09-.18-.13-.27l-.13-.27-.18-.38-.8-1.7c-.05-.08-.08-.17-.12-.25-.22-.47-.44-.94-.65-1.41-.13-.28-.26-.55-.38-.83l-.9-2-.36-.81c-.09-.22-.19-.44-.29-.67-.31-.72-.62-1.44-.92-2.16l-.4-.94c-.09-.21-.18-.43-.26-.65s-.3-.7-.44-1.06c-.36-.88-.71-1.77-1.06-2.66-.14-.34-.28-.7-.41-1.05l-.06-.17c0-.08-.07-.15-.09-.22l-.09-.22-.12-.33c-.1-.26-.2-.51-.29-.77s-.19-.48-.27-.72c-.29-.75-.56-1.5-.83-2.25-.41-1.12-.81-2.24-1.2-3.37a2.25,2.25,0,0,0-.08-.24c20.1.72,40.32.59,58.53-1,21.12-1.88,39.54-5.78,52-12.7,0,0,11.75,3,28.79,7.63,3.33.9,6.86,1.86,10.54,2.88,5.26,1.45,10.83,3,16.58,4.63l2.59.74,1.36.38,1.91.55,8.95,2.58c14.77,4.31,29.89,8.91,43.2,13.35,14.69,4.9,27.18,9.6,34.59,13.47,1.39.72,2.6,1.42,3.61,2.08.69.45,1.43.89,2.23,1.32,13.8,7.47,43,11.77,69.57,13.53,3.43.22,6.81.41,10.11.55,5.24.23,10.27.35,14.93.37h2.06q3.29,0,6.26-.08c3.57-.08,6.79-.24,9.56-.46a43,43,0,0,0,8.82-1.38c13.82-4.56,76.56-17.56,88.69-9.56s129.78,20.11,151.2,9.56,6.68-22.06,31.3-9.56c6.11,3.1,23.66,17.39,46.59,37.1l-59.24,70.33-14.2,16.87a135.77,135.77,0,0,1,29.33,38.1C756.54,576.56,773.4,611.66,786.67,631.88Z" transform="translate(-64.27 -11.35)" fill="#ffbc44"/><path d="M786.67,631.88c-16-12.12-42.49-27.31-81.82-35.3-2.28-.46-4.62-.91-7-1.32q-6.92-1.2-13.41-2.84-6.16-1.53-12-3.4c-.89-.28-1.78-.58-2.66-.88a190.09,190.09,0,0,1-27.05-11.49l-2.33,2.76-10.39,12.35-71.49,84.89-27.63,32.81h0L506.08,739,505,740.22l-.21-.18-2.5-2.11L500,736l-6.64-5.59L465.61,707l-13.82-11.64-9.33-7.85L430.31,677.3l-2-1.66-7.65-6.45L413.29,663l-29.07-24.48-14.57-12.27-5.25-4.42-2.41-2-12.53-10.56-21.38-18-2.78-2.34-.27-.23-8.91-7.5L305,571.73l-12.4-10.44-2.17-1.83-6.16-5.2h0l-8.45-7.12-23.37-19.68-3.68-3.1-.61-.51-14.51-12.22-9.37-7.9-3.35-2.81-1.73-1.46h0l-5.65-4.75L196.39,480.3l-48.94-41.21c-.86-.72-1.71-1.45-2.55-2.18l-.5-.44-.19-.16c-.87-.76-1.72-1.52-2.57-2.28-.58-.52-1.16-1-1.73-1.57l-.43-.4-.49-.45-1.23-1.14-.13-.13-.16-.15c-.72-.67-1.42-1.35-2.12-2l-1-.94-.7-.69-1.09-1.1,0,0-.08-.08c-1.18-1.17-2.33-2.36-3.48-3.55l-1.46-1.54c-.51-.54-1-1.09-1.52-1.64l-.8-.87c-.43-.46-.85-.93-1.26-1.39-.63-.69-1.25-1.39-1.86-2.09s-1.38-1.59-2.06-2.39c-.46-.53-.91-1.06-1.36-1.6l-.33-.39q-1-1.17-1.92-2.34l-.3-.37c-.54-.66-1.06-1.32-1.58-2-.3-.36-.58-.73-.86-1.09s-.73-.93-1.08-1.4-.58-.74-.86-1.12a2.56,2.56,0,0,1-.2-.26c-.57-.74-1.13-1.49-1.68-2.24l-.27-.36-.35-.48-.57-.79-.3-.41-1.09-1.53-.3-.41-.43-.62c-.47-.66-.93-1.33-1.39-2l-1-1.41c-.58-.85-1.15-1.71-1.71-2.57l-.14-.21c-.61-.93-1.21-1.86-1.8-2.8l-.18-.28c-.11-.17-.22-.34-.32-.51-.59-.93-1.16-1.86-1.73-2.8-.42-.69-.84-1.38-1.25-2.08l-.44-.73L95.4,377c-.17-.3-.35-.6-.52-.91l-.34-.6-.38-.67-.06-.12c-.16-.27-.31-.55-.47-.83-.38-.68-.75-1.36-1.12-2,0,0-.05-.09-.08-.14-.33-.6-.65-1.21-1-1.82-.44-.83-.88-1.66-1.31-2.5l-1-2c-.25-.49-.49-1-.73-1.47-.17-.33-.33-.66-.49-1s-.28-.56-.41-.84c0-.09-.09-.18-.13-.27l-.13-.27-.18-.38-.8-1.7c-.05-.08-.08-.17-.12-.25-.22-.47-.44-.94-.65-1.41-.13-.28-.26-.55-.38-.83l-.9-2-.36-.81c-.09-.22-.19-.44-.29-.67-.31-.72-.62-1.44-.92-2.16l-.4-.94c-.09-.21-.18-.43-.26-.65s-.3-.7-.44-1.06c-.36-.88-.71-1.77-1.06-2.66-.14-.34-.28-.7-.41-1.05l-.06-.17c0-.08-.07-.15-.09-.22l-.09-.22-.12-.33c-.1-.26-.2-.51-.29-.77s-.19-.48-.27-.72c-.29-.75-.56-1.5-.83-2.25-.41-1.12-.81-2.24-1.2-3.37a2.25,2.25,0,0,0-.08-.24c20.1.72,40.32.59,58.53-1,21.12-1.88,39.54-5.78,52-12.7,0,0,11.75,3,28.79,7.63,3.33.9,6.86,1.86,10.54,2.88,5.26,1.45,10.83,3,16.58,4.63l2.59.74,1.36.38,1.91.55,8.95,2.58c14.77,4.31,29.89,8.91,43.2,13.35,14.69,4.9,27.18,9.6,34.59,13.47,1.39.72,2.6,1.42,3.61,2.08.69.45,1.43.89,2.23,1.32,13.8,7.47,43,11.77,69.57,13.53,3.43.22,6.81.41,10.11.55,5.24.23,10.27.35,14.93.37h2.06q3.29,0,6.26-.08c3.57-.08,6.79-.24,9.56-.46a43,43,0,0,0,8.82-1.38c13.82-4.56,76.56-17.56,88.69-9.56s129.78,20.11,151.2,9.56,6.68-22.06,31.3-9.56c6.11,3.1,23.66,17.39,46.59,37.1l-59.24,70.33-14.2,16.87a135.77,135.77,0,0,1,29.33,38.1C756.54,576.56,773.4,611.66,786.67,631.88Z" transform="translate(-64.27 -11.35)" opacity="0.5"/><path d="M786.67,631.88c13.21,10,19.19,18,19.19,18C800.75,650.21,794.3,643.51,786.67,631.88Z" transform="translate(-64.27 -11.35)" fill="#ffbc44"/><circle cx="78.93" cy="120.33" r="0.98" fill="#fff"/><circle cx="656.61" cy="175.66" r="0.98" fill="#fff"/><circle cx="326.93" cy="96.88" r="0.98" fill="#fff"/><circle cx="450.26" cy="98.44" r="0.98" fill="#fff"/><circle cx="374.26" cy="190.02" r="0.98" fill="#fff"/><circle cx="554.26" cy="128.02" r="0.98" fill="#fff"/><circle cx="474.24" cy="72.98" r="2.12" fill="#fff" opacity="0.5"/><circle cx="567.47" cy="51" r="2.12" fill="#fff" opacity="0.5"/><circle cx="210.26" cy="216.98" r="0.83" fill="#fff" opacity="0.5"/><circle cx="184.26" cy="99.27" r="0.83" fill="#fff" opacity="0.5"/><circle cx="164.26" cy="153.5" r="0.83" fill="#fff" opacity="0.5"/><circle cx="420.26" cy="147.72" r="0.83" fill="#fff" opacity="0.5"/><circle cx="606.26" cy="89.52" r="0.83" fill="#fff" opacity="0.5"/><circle cx="295.13" cy="145.6" r="2.12" fill="#fff" opacity="0.5"/><circle cx="257.47" cy="59.66" r="2.12" fill="#fff" opacity="0.5"/><circle cx="412.09" cy="99.87" r="2.12" fill="#fff" opacity="0.5"/><polygon points="110.18 88.87 109.65 88.87 109.65 88.35 109.53 88.35 109.53 88.87 109.01 88.87 109.01 89 109.53 89 109.53 89.52 109.65 89.52 109.65 89 110.18 89 110.18 88.87" fill="#fff"/><polygon points="670.11 97.4 669.59 97.4 669.59 96.88 669.47 96.88 669.47 97.4 668.95 97.4 668.95 97.53 669.47 97.53 669.47 98.05 669.59 98.05 669.59 97.53 670.11 97.53 670.11 97.4" fill="#fff"/><polygon points="215.49 100.27 214.48 100.27 214.48 99.27 214.25 99.27 214.25 100.27 213.24 100.27 213.24 100.51 214.25 100.51 214.25 101.51 214.48 101.51 214.48 100.51 215.49 100.51 215.49 100.27" fill="#fff"/><polygon points="249.5 167.76 248.5 167.76 248.5 166.75 248.26 166.75 248.26 167.76 247.26 167.76 247.26 167.99 248.26 167.99 248.26 169 248.5 169 248.5 167.99 249.5 167.99 249.5 167.76" fill="#fff"/><polygon points="99.26 184.42 98.26 184.42 98.26 183.42 98.02 183.42 98.02 184.42 97.02 184.42 97.02 184.66 98.02 184.66 98.02 185.66 98.26 185.66 98.26 184.66 99.26 184.66 99.26 184.42" fill="#fff"/><polygon points="444.93 205.43 443.92 205.43 443.92 204.42 443.69 204.42 443.69 205.43 442.68 205.43 442.68 205.66 443.69 205.66 443.69 206.66 443.92 206.66 443.92 205.66 444.93 205.66 444.93 205.43" fill="#fff"/><polygon points="568.59 168.88 567.59 168.88 567.59 167.88 567.35 167.88 567.35 168.88 566.35 168.88 566.35 169.11 567.35 169.11 567.35 170.12 567.59 170.12 567.59 169.11 568.59 169.11 568.59 168.88" fill="#fff"/><path d="M416.64,611a139,139,0,0,1-32.42,27.53l-14.57-12.27C383.27,614.49,402.92,601.82,416.64,611Z" transform="translate(-64.27 -11.35)" fill="#ffbc44"/><path d="M371.3,596.09s34.68-37.59,60-28.26c0,0-29.66,39-64.66,40Z" transform="translate(-64.27 -11.35)" fill="#ffbc44"/><path d="M387,553.5s38.33-36,55-29.67c0,0-27.67,40-56.67,37.67Z" transform="translate(-64.27 -11.35)" fill="#ffbc44"/><path d="M402.31,514.17s33-43,51-39.67c0,0-20,38.33-51,44Z" transform="translate(-64.27 -11.35)" fill="#ffbc44"/><path d="M419,461.14s29.17-33,44.92-32.89c0,0-23,44-46.12,43.64Z" transform="translate(-64.27 -11.35)" fill="#ffbc44"/><path d="M428.81,425.83,457,357.17s1.41,62.07-31.76,81.4Z" transform="translate(-64.27 -11.35)" fill="#ffbc44"/><path d="M440.25,350.11s4.66-57.34,1.66-62c0,0,20.15,47.66-1.86,87.33Z" transform="translate(-64.27 -11.35)" fill="#ffbc44"/><path d="M349.46,609.21l-21.38-18-2.78-2.34c0-.12,0-.24,0-.36-.7-5.9-.78-9.61-.78-9.61C337.69,579.93,345.22,594.41,349.46,609.21Z" transform="translate(-64.27 -11.35)" fill="#ffbc44"/><path d="M374.16,594.36s-8.22-50.49-34.5-56.66c0,0,3.26,48.89,31.91,69Z" transform="translate(-64.27 -11.35)" fill="#ffbc44"/><path d="M390.1,553.86s-.28-52.58-16.35-60.31c0,0-10,47.6,11.69,67Z" transform="translate(-64.27 -11.35)" fill="#ffbc44"/><path d="M403.54,513.58s-2.25-54.16-18.89-61.79c0,0-5.7,42.86,16.4,65.33Z" transform="translate(-64.27 -11.35)" fill="#ffbc44"/><path d="M421.28,465.46s-.11-44-12-54.38c0,0-11.82,48.25,5.77,63.24Z" transform="translate(-64.27 -11.35)" fill="#ffbc44"/><path d="M427.41,423.67l-11.55-73.32s-15.71,60.07,12.1,86.54Z" transform="translate(-64.27 -11.35)" fill="#ffbc44"/><path d="M429.67,350.8S400,301.52,400.61,296c0,0,3.15,51.65,40.5,77.4Z" transform="translate(-64.27 -11.35)" fill="#ffbc44"/><path d="M433.15,336.25s-28-70-40.67-75.67c0,0,40,20.34,43,73.67Z" transform="translate(-64.27 -11.35)" fill="#ffbc44"/><path d="M417.6,472.31l-1.91-.59c23.63-77.05,29.52-126.24,16.6-138.49l1.38-1.46C447.37,344.77,441.81,393.36,417.6,472.31Z" transform="translate(-64.27 -11.35)" fill="#444053"/><path d="M419.34,466.58l-.9,2.92-.66,2.17c-.08.21-.14.42-.2.63-3.69,11.84-7.85,24.7-12.45,38.33-.86,2.59-1.75,5.2-2.65,7.84-3.39,9.93-7,20.23-10.78,30.81-.52,1.49-1.06,3-1.6,4.48L390,554c-.9,2.52-1.82,5-2.75,7.59q-5.28,14.5-11,29.56c-1,2.79-2.12,5.58-3.2,8.39-.82,2.14-1.65,4.3-2.49,6.46q-.3.81-.63,1.62-2.73,7.05-5.55,14.18l-2.41-2q2.38-6,4.72-11.94c.49-1.25,1-2.49,1.46-3.73,1-2.61,2-5.2,3-7.78l.09-.23q1.06-2.76,2.13-5.49c4-10.35,7.86-20.52,11.57-30.44l1.35-3.64c.46-1.24.92-2.47,1.37-3.7.73-2,1.45-3.9,2.16-5.84,3.81-10.38,7.43-20.47,10.83-30.2q1.31-3.76,2.57-7.44c4.28-12.4,8.17-24.17,11.62-35.17.64-2,1.25-4,1.85-5.93,0-.14.09-.28.13-.42l1.4-.71Z" transform="translate(-64.27 -11.35)" fill="#444053"/><path d="M415.66,644.87l5,24.32L413.29,663A153,153,0,0,1,415.66,644.87Z" transform="translate(-64.27 -11.35)" fill="#ffbc44"/><path d="M433.41,641s6-57.21,9.82-61.24c0,0-28.6,43.12-14.31,86.17Z" transform="translate(-64.27 -11.35)" fill="#ffbc44"/><path d="M451.79,695.39l-9.33-7.85,14.88-41.77S459.14,671.51,451.79,695.39Z" transform="translate(-64.27 -11.35)" fill="#ffbc44"/><path d="M443.68,643.66s38.26-42.95,38.68-48.48c0,0-12.64,50.18-54.1,68.58Z" transform="translate(-64.27 -11.35)" fill="#ffbc44"/><path d="M443,628.71s40.45-63.62,53.95-66.85c0,0-43.07,12.6-55.87,64.46Z" transform="translate(-64.27 -11.35)" fill="#ffbc44"/><path d="M444.35,625.9a13.62,13.62,0,0,0-2.21,1.8c-5.19,5.16-8.71,15.9-10.55,31.72-.11,1-.21,1.91-.3,2.9q-.69,6.9-1,15l-2-1.66c.15-3.39.34-6.62.59-9.7.07-.87.14-1.74.22-2.59l.09-.85a110.91,110.91,0,0,1,4.36-23.16c2-6.09,4.5-10.59,7.55-13.45a14.86,14.86,0,0,1,2.13-1.67Z" transform="translate(-64.27 -11.35)" fill="#444053"/><path d="M506.08,739,505,740.22l-.21-.18C505.22,739.68,505.65,739.32,506.08,739Z" transform="translate(-64.27 -11.35)" fill="#ffbc44"/><path d="M558.56,676.65l-27.63,32.81h0c-6.36,3.41-13.19,5.63-20.13,5.51q-1,0-2-.09l.22-1,.82-3.93.63-3,.74-.68c.52-.48,1.3-1.19,2.31-2.08l1.67-1.45h0C524.32,694.81,544.6,678.52,558.56,676.65Z" transform="translate(-64.27 -11.35)" fill="#ffbc44"/><path d="M525.84,667.55s33-43,51-39.66c0,0-20,38.33-51,44Z" transform="translate(-64.27 -11.35)" fill="#ffbc44"/><path d="M542.48,614.53s29.17-33,44.93-32.89c0,0-23,44-46.13,43.64Z" transform="translate(-64.27 -11.35)" fill="#ffbc44"/><path d="M552.34,579.22l28.17-68.67s1.41,62.08-31.75,81.41Z" transform="translate(-64.27 -11.35)" fill="#ffbc44"/><path d="M563.78,503.5s4.67-57.34,1.67-62c0,0,20.14,47.66-1.86,87.33Z" transform="translate(-64.27 -11.35)" fill="#ffbc44"/><path d="M493.39,730.43,465.61,707a125.44,125.44,0,0,1-2.42-15.94C479.25,694.86,488.57,715.19,493.39,730.43Z" transform="translate(-64.27 -11.35)" fill="#ffbc44"/><path d="M513.63,707.25s-.28-52.58-16.35-60.31c0,0-10,47.6,11.7,67Z" transform="translate(-64.27 -11.35)" fill="#ffbc44"/><path d="M527.07,667s-2.25-54.16-18.89-61.79c0,0-5.7,42.86,16.4,65.33Z" transform="translate(-64.27 -11.35)" fill="#ffbc44"/><path d="M544.81,618.84s-.1-44-12-54.37c0,0-11.81,48.25,5.77,63.23Z" transform="translate(-64.27 -11.35)" fill="#ffbc44"/><path d="M550.94,577.05l-11.55-73.31s-15.7,60.07,12.1,86.54Z" transform="translate(-64.27 -11.35)" fill="#ffbc44"/><path d="M553.2,504.19s-29.67-49.28-29.06-54.79c0,0,3.15,51.65,40.5,77.4Z" transform="translate(-64.27 -11.35)" fill="#ffbc44"/><path d="M556.68,489.64s-28-70-40.67-75.67c0,0,40,20.33,43,73.67Z" transform="translate(-64.27 -11.35)" fill="#ffbc44"/><path d="M541.13,625.69l-1.91-.58c23.63-77.06,29.53-126.24,16.6-138.5l1.38-1.45C570.9,498.15,565.34,546.75,541.13,625.69Z" transform="translate(-64.27 -11.35)" fill="#444053"/><path d="M542.87,620c-.3,1-.6,1.95-.91,2.93h0c-.21.7-.43,1.4-.65,2.12h0v0c-.07.2-.14.41-.2.62-3.69,11.84-7.86,24.7-12.45,38.34h0q-1.3,3.87-2.65,7.83c-3.39,9.92-7,20.22-10.78,30.81h0c-.52,1.49-1.06,3-1.6,4.47l-.08.21h0c-.91,2.52-1.82,5.06-2.76,7.61q-4.11,11.31-8.48,22.95L500,736q4.37-11.41,8.5-22.47l1.35-3.64c.46-1.24.92-2.47,1.37-3.7.73-2,1.45-3.9,2.16-5.84q5.72-15.58,10.84-30.21c.86-2.5,1.72-5,2.56-7.41v0c4.28-12.41,8.18-24.17,11.63-35.17.62-2,1.22-3.9,1.8-5.81.06-.18.12-.36.17-.54l1.4-.71Z" transform="translate(-64.27 -11.35)" fill="#444053"/><path d="M716.47,572.49a136.58,136.58,0,0,1-11.62,24.09c-2.28-.46-4.62-.91-7-1.32q-6.92-1.2-13.41-2.84C692.86,581.83,704,572.11,716.47,572.49Z" transform="translate(-64.27 -11.35)" fill="#ffbc44"/><path d="M669.88,573s24.94-46.3,42.75-45.58c0,0-13.55,46.71-41.79,53.7Z" transform="translate(-64.27 -11.35)" fill="#ffbc44"/><path d="M672,530.79s17.66-51.25,35.78-53.8c0,0-6.8,42.7-34.41,57.91Z" transform="translate(-64.27 -11.35)" fill="#ffbc44"/><path d="M670.91,475.23s17.2-40.52,32.17-45.44c0,0-7.87,49-29.9,56Z" transform="translate(-64.27 -11.35)" fill="#ffbc44"/><path d="M669.06,438.61,674,364.56s21,58.41-4.29,87.27Z" transform="translate(-64.27 -11.35)" fill="#ffbc44"/><path d="M655.89,363.17s-13.76-55.85-18.09-59.33c0,0,34.22,38.82,25.94,83.42Z" transform="translate(-64.27 -11.35)" fill="#ffbc44"/><path d="M640.44,579.41l-10.39,12.35A133.25,133.25,0,0,1,620,573C627.16,572.32,634.1,575.05,640.44,579.41Z" transform="translate(-64.27 -11.35)" fill="#ffbc44"/><path d="M673,572.31s-17-49.78-34.63-52c0,0,5.64,48.3,32.34,59.86Z" transform="translate(-64.27 -11.35)" fill="#ffbc44"/><path d="M672.93,529.84s-19.32-50.64-37.52-52.6c0,0,8.2,42.46,36.28,56.76Z" transform="translate(-64.27 -11.35)" fill="#ffbc44"/><path d="M674.48,478.58s-14.06-41.72-28.6-47.77c0,0,4.1,49.51,25.53,58.14Z" transform="translate(-64.27 -11.35)" fill="#ffbc44"/><path d="M667.05,437l-34.21-65.86s4.16,61.94,38.92,78.23Z" transform="translate(-64.27 -11.35)" fill="#ffbc44"/><path d="M646.08,367.18s-43.77-37.32-44.94-42.74c0,0,19.37,48,63,60.56Z" transform="translate(-64.27 -11.35)" fill="#ffbc44"/><path d="M644.76,352.28s-48.76-57.5-62.57-58.86c0,0,44.38,6.6,64.15,56.22Z" transform="translate(-64.27 -11.35)" fill="#ffbc44"/><path d="M673.17,486.24l-2,.05c-2-80.57-12-129.08-28.18-136.61l.84-1.81C660.94,355.84,671.09,403.69,673.17,486.24Z" transform="translate(-64.27 -11.35)" fill="#444053"/><path d="M673.49,526.59c0,2.71,0,5.46,0,8.23-.07,10.49-.21,21.4-.44,32.64,0,1.58-.07,3.16-.1,4.75a1.77,1.77,0,0,0,0,.23q-.09,4-.2,8.09t-.24,8.49c-.89-.28-1.78-.58-2.66-.88q.15-4.14.3-8.24c0-1.29.09-2.57.13-3.85s.09-2.67.12-4q.11-3.12.2-6.21c.32-11.06.55-21.78.69-32.08q0-4,.08-7.85c.12-13.12.08-25.52-.13-37.06q-.06-3.21-.14-6.32c0-.11,0-.21,0-.32l1.11-1.12.83-.84c0,1,0,2,.08,3.07,0,.74,0,1.48,0,2.23,0,.23,0,.45,0,.68C673.4,498.65,673.53,512.19,673.49,526.59Z" transform="translate(-64.27 -11.35)" fill="#444053"/><path d="M507.27,296s-7.85,1.2-5.77,6.44a1.36,1.36,0,0,0,1,1.24s-.07-.4.74-.44a3.51,3.51,0,0,0,.85-.14,1.79,1.79,0,0,0,.94-.64h0s2-1.37,2.06-5.12c0,0,.46-.91.39-1.1l-1.19.84a2.38,2.38,0,0,1,.47,1.7s-.41-1.68-.65-1.59c-.05,0-.61.48-.61.48a3.93,3.93,0,0,1,.8,2.8s-.21-2.08-1-2.63l-.81.73a4.17,4.17,0,0,1,1,3s-.3-2.15-1.12-2.84l-.7.83a4,4,0,0,1,.94,2.75s-.6-2.46-1.08-2.55a5.4,5.4,0,0,0-.65,1.09s.84,1.09.62,1.81c0,0-.57-1.6-.75-1.57a5.48,5.48,0,0,0-.41,2,4,4,0,0,1,.21-2.08,2.2,2.2,0,0,0-1,.82s-.06-.8,1.11-1.12a5,5,0,0,1,.57-1,4.87,4.87,0,0,0-1.84.62,2.18,2.18,0,0,1,2-.85l.68-.85a6.89,6.89,0,0,0-2.2.5,2.75,2.75,0,0,1,2.39-.7l.78-.73a8.34,8.34,0,0,0-2.14.27,3.31,3.31,0,0,1,2.37-.47l.58-.43s-1,0-1.3,0-.32,0-.32,0a3.49,3.49,0,0,1,1.86-.19A8.47,8.47,0,0,0,507.27,296Z" transform="translate(-64.27 -11.35)" fill="#ffbc44"/><path d="M507.27,296s-7.85,1.2-5.77,6.44a1.36,1.36,0,0,0,1,1.24s-.07-.4.74-.44a3.51,3.51,0,0,0,.85-.14,1.79,1.79,0,0,0,.94-.64h0s2-1.37,2.06-5.12c0,0,.46-.91.39-1.1l-1.19.84a2.38,2.38,0,0,1,.47,1.7s-.41-1.68-.65-1.59c-.05,0-.61.48-.61.48a3.93,3.93,0,0,1,.8,2.8s-.21-2.08-1-2.63l-.81.73a4.17,4.17,0,0,1,1,3s-.3-2.15-1.12-2.84l-.7.83a4,4,0,0,1,.94,2.75s-.6-2.46-1.08-2.55a5.4,5.4,0,0,0-.65,1.09s.84,1.09.62,1.81c0,0-.57-1.6-.75-1.57a5.48,5.48,0,0,0-.41,2,4,4,0,0,1,.21-2.08,2.2,2.2,0,0,0-1,.82s-.06-.8,1.11-1.12a5,5,0,0,1,.57-1,4.87,4.87,0,0,0-1.84.62,2.18,2.18,0,0,1,2-.85l.68-.85a6.89,6.89,0,0,0-2.2.5,2.75,2.75,0,0,1,2.39-.7l.78-.73a8.34,8.34,0,0,0-2.14.27,3.31,3.31,0,0,1,2.37-.47l.58-.43s-1,0-1.3,0-.32,0-.32,0a3.49,3.49,0,0,1,1.86-.19A8.47,8.47,0,0,0,507.27,296Z" transform="translate(-64.27 -11.35)" opacity="0.5"/><path d="M172.13,266.48s-7.85,1.21-5.76,6.44a1.37,1.37,0,0,0,1,1.25s-.07-.41.74-.44a3.51,3.51,0,0,0,.85-.14,1.87,1.87,0,0,0,.94-.65h0s2-1.37,2.06-5.11c0,0,.46-.92.39-1.11l-1.19.84a2.42,2.42,0,0,1,.47,1.71s-.41-1.69-.65-1.59c-.05,0-.61.47-.61.47a4,4,0,0,1,.8,2.8s-.22-2.07-1-2.63l-.81.74a4.15,4.15,0,0,1,1,3s-.31-2.16-1.12-2.85l-.7.83a4,4,0,0,1,.94,2.75s-.6-2.46-1.08-2.55a5.4,5.4,0,0,0-.65,1.09s.84,1.09.62,1.81c0,0-.57-1.6-.76-1.57a5.55,5.55,0,0,0-.4,2,4,4,0,0,1,.21-2.08,2.28,2.28,0,0,0-1,.82s-.06-.79,1.11-1.12a5.28,5.28,0,0,1,.57-1,5.08,5.08,0,0,0-1.84.62,2.18,2.18,0,0,1,2-.85l.67-.85a7.08,7.08,0,0,0-2.19.5,2.72,2.72,0,0,1,2.38-.7l.78-.73a8.1,8.1,0,0,0-2.14.28,3.32,3.32,0,0,1,2.38-.48l.57-.42s-1,0-1.29.05-.32-.05-.32-.05a3.46,3.46,0,0,1,1.85-.19A8,8,0,0,0,172.13,266.48Z" transform="translate(-64.27 -11.35)" fill="#ffbc44"/><path d="M172.13,266.48s-7.85,1.21-5.76,6.44a1.37,1.37,0,0,0,1,1.25s-.07-.41.74-.44a3.51,3.51,0,0,0,.85-.14,1.87,1.87,0,0,0,.94-.65h0s2-1.37,2.06-5.11c0,0,.46-.92.39-1.11l-1.19.84a2.42,2.42,0,0,1,.47,1.71s-.41-1.69-.65-1.59c-.05,0-.61.47-.61.47a4,4,0,0,1,.8,2.8s-.22-2.07-1-2.63l-.81.74a4.15,4.15,0,0,1,1,3s-.31-2.16-1.12-2.85l-.7.83a4,4,0,0,1,.94,2.75s-.6-2.46-1.08-2.55a5.4,5.4,0,0,0-.65,1.09s.84,1.09.62,1.81c0,0-.57-1.6-.76-1.57a5.55,5.55,0,0,0-.4,2,4,4,0,0,1,.21-2.08,2.28,2.28,0,0,0-1,.82s-.06-.79,1.11-1.12a5.28,5.28,0,0,1,.57-1,5.08,5.08,0,0,0-1.84.62,2.18,2.18,0,0,1,2-.85l.67-.85a7.08,7.08,0,0,0-2.19.5,2.72,2.72,0,0,1,2.38-.7l.78-.73a8.1,8.1,0,0,0-2.14.28,3.32,3.32,0,0,1,2.38-.48l.57-.42s-1,0-1.29.05-.32-.05-.32-.05a3.46,3.46,0,0,1,1.85-.19A8,8,0,0,0,172.13,266.48Z" transform="translate(-64.27 -11.35)" opacity="0.5"/><path d="M474.66,306.59s-7.85,1.21-5.77,6.44a1.37,1.37,0,0,0,1,1.25s-.07-.41.74-.44a3.51,3.51,0,0,0,.85-.14,1.87,1.87,0,0,0,.94-.65h0s2-1.37,2.06-5.11c0,0,.46-.91.39-1.11l-1.19.84a2.42,2.42,0,0,1,.47,1.71s-.41-1.69-.65-1.59c-.05,0-.61.47-.61.47a3.93,3.93,0,0,1,.8,2.8s-.21-2.07-1-2.63l-.81.74a4.15,4.15,0,0,1,1,3s-.3-2.16-1.12-2.85l-.69.83a4.06,4.06,0,0,1,.93,2.75s-.6-2.46-1.08-2.55a5.4,5.4,0,0,0-.65,1.09s.84,1.09.62,1.81c0,0-.57-1.6-.75-1.57a5.71,5.71,0,0,0-.41,2,4,4,0,0,1,.21-2.07,2.23,2.23,0,0,0-1,.81s-.05-.79,1.11-1.12a5.28,5.28,0,0,1,.57-1,5,5,0,0,0-1.84.63,2.17,2.17,0,0,1,2-.86l.68-.84a7.08,7.08,0,0,0-2.2.49,2.78,2.78,0,0,1,2.39-.7l.78-.73a8.53,8.53,0,0,0-2.14.28,3.28,3.28,0,0,1,2.37-.48l.58-.42s-1,0-1.3,0-.32,0-.32,0a3.49,3.49,0,0,1,1.86-.19A8.47,8.47,0,0,0,474.66,306.59Z" transform="translate(-64.27 -11.35)" fill="#ffbc44"/><path d="M474.66,306.59s-7.85,1.21-5.77,6.44a1.37,1.37,0,0,0,1,1.25s-.07-.41.74-.44a3.51,3.51,0,0,0,.85-.14,1.87,1.87,0,0,0,.94-.65h0s2-1.37,2.06-5.11c0,0,.46-.91.39-1.11l-1.19.84a2.42,2.42,0,0,1,.47,1.71s-.41-1.69-.65-1.59c-.05,0-.61.47-.61.47a3.93,3.93,0,0,1,.8,2.8s-.21-2.07-1-2.63l-.81.74a4.15,4.15,0,0,1,1,3s-.3-2.16-1.12-2.85l-.69.83a4.06,4.06,0,0,1,.93,2.75s-.6-2.46-1.08-2.55a5.4,5.4,0,0,0-.65,1.09s.84,1.09.62,1.81c0,0-.57-1.6-.75-1.57a5.71,5.71,0,0,0-.41,2,4,4,0,0,1,.21-2.07,2.23,2.23,0,0,0-1,.81s-.05-.79,1.11-1.12a5.28,5.28,0,0,1,.57-1,5,5,0,0,0-1.84.63,2.17,2.17,0,0,1,2-.86l.68-.84a7.08,7.08,0,0,0-2.2.49,2.78,2.78,0,0,1,2.39-.7l.78-.73a8.53,8.53,0,0,0-2.14.28,3.28,3.28,0,0,1,2.37-.48l.58-.42s-1,0-1.3,0-.32,0-.32,0a3.49,3.49,0,0,1,1.86-.19A8.47,8.47,0,0,0,474.66,306.59Z" transform="translate(-64.27 -11.35)" opacity="0.5"/><path d="M482,276.07s-4.84,6.3.28,8.64a1.36,1.36,0,0,0,1.58.21s-.33-.24.23-.82a4.15,4.15,0,0,0,.52-.69,1.9,1.9,0,0,0,.23-1.12h0s.48-2.36-2.05-5.12c0,0-.3-1-.48-1.07l-.28,1.43a2.38,2.38,0,0,1,1.52.91s-1.46-.94-1.57-.7c0,.05-.11.76-.11.76a3.94,3.94,0,0,1,2.51,1.47s-1.59-1.35-2.55-1.2l-.07,1.09a4.17,4.17,0,0,1,2.78,1.52s-1.71-1.35-2.78-1.28l.07,1.08a4.1,4.1,0,0,1,2.58,1.34s-2.13-1.36-2.54-1.09a5.15,5.15,0,0,0,.28,1.23s1.36.21,1.7.88c0,0-1.52-.76-1.63-.61a5.59,5.59,0,0,0,1.1,1.73A4,4,0,0,1,482,283a2.23,2.23,0,0,0-.15,1.27s-.59-.54,0-1.57a5.23,5.23,0,0,1-.31-1.15,4.83,4.83,0,0,0-.89,1.72,2.17,2.17,0,0,1,.86-2l-.09-1.08a7.07,7.07,0,0,0-1.25,1.87s-.11-1,1.24-2.15l.06-1.06a8.27,8.27,0,0,0-1.35,1.67,3.25,3.25,0,0,1,1.38-2l.13-.71s-.72.71-.9.93-.27.19-.27.19a3.53,3.53,0,0,1,1.21-1.42A8.87,8.87,0,0,0,482,276.07Z" transform="translate(-64.27 -11.35)" fill="#ffbc44"/><path d="M482,276.07s-4.84,6.3.28,8.64a1.36,1.36,0,0,0,1.58.21s-.33-.24.23-.82a4.15,4.15,0,0,0,.52-.69,1.9,1.9,0,0,0,.23-1.12h0s.48-2.36-2.05-5.12c0,0-.3-1-.48-1.07l-.28,1.43a2.38,2.38,0,0,1,1.52.91s-1.46-.94-1.57-.7c0,.05-.11.76-.11.76a3.94,3.94,0,0,1,2.51,1.47s-1.59-1.35-2.55-1.2l-.07,1.09a4.17,4.17,0,0,1,2.78,1.52s-1.71-1.35-2.78-1.28l.07,1.08a4.1,4.1,0,0,1,2.58,1.34s-2.13-1.36-2.54-1.09a5.15,5.15,0,0,0,.28,1.23s1.36.21,1.7.88c0,0-1.52-.76-1.63-.61a5.59,5.59,0,0,0,1.1,1.73A4,4,0,0,1,482,283a2.23,2.23,0,0,0-.15,1.27s-.59-.54,0-1.57a5.23,5.23,0,0,1-.31-1.15,4.83,4.83,0,0,0-.89,1.72,2.17,2.17,0,0,1,.86-2l-.09-1.08a7.07,7.07,0,0,0-1.25,1.87s-.11-1,1.24-2.15l.06-1.06a8.27,8.27,0,0,0-1.35,1.67,3.25,3.25,0,0,1,1.38-2l.13-.71s-.72.71-.9.93-.27.19-.27.19a3.53,3.53,0,0,1,1.21-1.42A8.87,8.87,0,0,0,482,276.07Z" transform="translate(-64.27 -11.35)" opacity="0.5"/><path d="M515.39,383s21.07-.89,23.29-42.14-19.74-48.24-19.74-48.24-7-3.89-10-4.05-13.39.81-13.39.81l11.36-2.19s-16-6.09-20.78-6.58l17.29,3.66s.24-9.58-3.9-12.75c0,0,3.53-.26,5.42,6.64a13.18,13.18,0,0,0,7.89,8.86c6.41,2.5,15.28,6.45,17.3,9.83,0,0,3.73,3.9,3.16-6.25S530,271.74,529,271.5c0,0-7.63-8.11-18.34-8.6,0,0,6.25-2.52,16.8,5.36,0,0,.89-4-3.08-8.69S514.26,245,507.52,243.9c0,0,9.42-.57,16.89,11.61,0,0,2.76,1.79,3-2.76a55.69,55.69,0,0,1,1.87-10.23s2.27,10.47-2.52,15.18c0,0,9.17,11.94,8.77,25.33,0,0,2.84,6.09,3.89-1.06,0,0,.61-9.83,1.84-18.18a24.71,24.71,0,0,0-5.19-19.06c-2-2.53-3.44-5-2.65-6.27l10.63,12.67S553,230.43,559.47,226s7.31-5.44,7.31-5.44l-10.47,12.26,13.15-4.63-13.15,6.09s-6.09,4.95-9.58,18.51-3.82,22-3.82,22,18.76-14.86,22.33-14.37l-12.14,9.18a28.91,28.91,0,0,0-11.4,21.1h0s23.46-6,29.14-7.14l10.72-11L573.44,283l16.72-.24,9.58-6.82s-7.55,6.33-6.82,6.73,11.77.9,11.77.9-28.09-.17-31.17,1.86-10,2.76-10,2.76l19.89,3-23.7-1.71s-17.94,3.25-18.92,8.85c0,0,3.66,9.53,6.09,13.31,2,3.15,6.09,13.32,6.9,22.25s2,22.65-1.13,31S548.43,378,550,380.52s3,5.77-2,6.42-27.12-.33-27.12-.33S514.09,387.94,515.39,383Z" transform="translate(-64.27 -11.35)" fill="#ffbc44"/><path d="M527.19,378.55a10.63,10.63,0,0,1,7.16-.9,42.86,42.86,0,0,0,11,.32Z" transform="translate(-64.27 -11.35)" fill="#ffbc44" opacity="0.1"/><path d="M540.42,329.94s1,15.86-.78,19Z" transform="translate(-64.27 -11.35)" fill="#ffbc44" opacity="0.1"/><path d="M544.13,348.93S542.84,363.8,542,366.7,544.13,348.93,544.13,348.93Z" transform="translate(-64.27 -11.35)" fill="#ffbc44" opacity="0.1"/><path d="M545.39,312.39c.91.34,4.82,8.27,4,10.62S545.39,312.39,545.39,312.39Z" transform="translate(-64.27 -11.35)" fill="#ffbc44" opacity="0.1"/><path d="M535.47,304.16c.43.19,2.25,4.76,1.88,6.11S535.47,304.16,535.47,304.16Z" transform="translate(-64.27 -11.35)" fill="#ffbc44" opacity="0.1"/><path d="M552.41,330.8a60.46,60.46,0,0,0-.41,11.32,43.74,43.74,0,0,1-.12,8.6Z" transform="translate(-64.27 -11.35)" fill="#ffbc44" opacity="0.1"/><path d="M503.43,277.15a3.66,3.66,0,0,1,.77,2.34c0,.83-.08,1.67,0,2.5s.47,1.91,1.35,2Z" transform="translate(-64.27 -11.35)" fill="#ffbc44" opacity="0.1"/><path d="M518.43,249.68a21,21,0,0,1,2.93,3.64,8.24,8.24,0,0,0,.84,1.19,12.85,12.85,0,0,0,1.61,1.32,7.61,7.61,0,0,1,2.57,4Z" transform="translate(-64.27 -11.35)" fill="#ffbc44" opacity="0.1"/><path d="M560.86,226a5.27,5.27,0,0,1-1,1.39c-.37.35-.79.65-1.12,1a8.59,8.59,0,0,0-.72,1.06,29.55,29.55,0,0,1-3,3.79Z" transform="translate(-64.27 -11.35)" fill="#ffbc44" opacity="0.1"/><path d="M541.21,249.44a2.44,2.44,0,0,1,.86,2.2,6.29,6.29,0,0,0,.16,2.45c.13.35.36.65.51,1A4.7,4.7,0,0,1,543,257c0,.74,0,1.49-.07,2.24a3.88,3.88,0,0,1-.73,2.53Z" transform="translate(-64.27 -11.35)" fill="#ffbc44" opacity="0.1"/><path d="M547.09,272.73a9.62,9.62,0,0,0-1.82,1.25,3.25,3.25,0,0,0-1.06,1.9,9.36,9.36,0,0,1-.09.94,3.09,3.09,0,0,1-.62,1.14,15.65,15.65,0,0,1-1.54,1.71Z" transform="translate(-64.27 -11.35)" fill="#ffbc44"/><path d="M541.79,293.92a12.79,12.79,0,0,1,1.47-1,6.18,6.18,0,0,1,1.51-.66,17.24,17.24,0,0,1,2.49-.27,3.49,3.49,0,0,0,2.27-.93Z" transform="translate(-64.27 -11.35)" fill="#ffbc44" opacity="0.1"/><path d="M574.8,283.67a6.76,6.76,0,0,0-2.9.51c-.44.24-.83.57-1.28.81a3.88,3.88,0,0,1-1.86.49Z" transform="translate(-64.27 -11.35)" fill="#ffbc44" opacity="0.1"/><path d="M561.1,287.74a.56.56,0,0,1,.71.17c.18.2.27.46.46.66a2,2,0,0,0,1.47.46Z" transform="translate(-64.27 -11.35)" fill="#ffbc44" opacity="0.1"/><path d="M555.45,266.76l-1,.5a17,17,0,0,0-2.8,1.71Z" transform="translate(-64.27 -11.35)" fill="#ffbc44" opacity="0.1"/><path d="M544.61,276.05c-.63-.15-1.17.51-1.28,1.14a17.34,17.34,0,0,1-.16,1.92,3.62,3.62,0,0,1-.93,1.4Z" transform="translate(-64.27 -11.35)" fill="#ffbc44" opacity="0.1"/><path d="M534.05,277.2c-.57,1.7.63,3.55.28,5.3-.11.54-.35,1-.48,1.56a4.76,4.76,0,0,0,1.15,4Z" transform="translate(-64.27 -11.35)" fill="#ffbc44" opacity="0.1"/><g opacity="0.5"><path d="M515.39,383s21.07-.89,23.29-42.14-19.74-48.24-19.74-48.24-7-3.89-10-4.05-13.39.81-13.39.81l11.36-2.19s-16-6.09-20.78-6.58l17.29,3.66s.24-9.58-3.9-12.75c0,0,3.53-.26,5.42,6.64a13.18,13.18,0,0,0,7.89,8.86c6.41,2.5,15.28,6.45,17.3,9.83,0,0,3.73,3.9,3.16-6.25S530,271.74,529,271.5c0,0-7.63-8.11-18.34-8.6,0,0,6.25-2.52,16.8,5.36,0,0,.89-4-3.08-8.69S514.26,245,507.52,243.9c0,0,9.42-.57,16.89,11.61,0,0,2.76,1.79,3-2.76a55.69,55.69,0,0,1,1.87-10.23s2.27,10.47-2.52,15.18c0,0,9.17,11.94,8.77,25.33,0,0,2.84,6.09,3.89-1.06,0,0,.61-9.83,1.84-18.18a24.71,24.71,0,0,0-5.19-19.06c-2-2.53-3.44-5-2.65-6.27l10.63,12.67S553,230.43,559.47,226s7.31-5.44,7.31-5.44l-10.47,12.26,13.15-4.63-13.15,6.09s-6.09,4.95-9.58,18.51-3.82,22-3.82,22,18.76-14.86,22.33-14.37l-12.14,9.18a28.91,28.91,0,0,0-11.4,21.1h0s23.46-6,29.14-7.14l10.72-11L573.44,283l16.72-.24,9.58-6.82s-7.55,6.33-6.82,6.73,11.77.9,11.77.9-28.09-.17-31.17,1.86-10,2.76-10,2.76l19.89,3-23.7-1.71s-17.94,3.25-18.92,8.85c0,0,3.66,9.53,6.09,13.31,2,3.15,6.09,13.32,6.9,22.25s2,22.65-1.13,31S548.43,378,550,380.52s3,5.77-2,6.42-27.12-.33-27.12-.33S514.09,387.94,515.39,383Z" transform="translate(-64.27 -11.35)"/><path d="M527.19,378.55a10.63,10.63,0,0,1,7.16-.9,42.86,42.86,0,0,0,11,.32Z" transform="translate(-64.27 -11.35)" opacity="0.1"/><path d="M540.42,329.94s1,15.86-.78,19Z" transform="translate(-64.27 -11.35)" opacity="0.1"/><path d="M544.13,348.93S542.84,363.8,542,366.7,544.13,348.93,544.13,348.93Z" transform="translate(-64.27 -11.35)" opacity="0.1"/><path d="M545.39,312.39c.91.34,4.82,8.27,4,10.62S545.39,312.39,545.39,312.39Z" transform="translate(-64.27 -11.35)" opacity="0.1"/><path d="M535.47,304.16c.43.19,2.25,4.76,1.88,6.11S535.47,304.16,535.47,304.16Z" transform="translate(-64.27 -11.35)" opacity="0.1"/><path d="M552.41,330.8a60.46,60.46,0,0,0-.41,11.32,43.74,43.74,0,0,1-.12,8.6Z" transform="translate(-64.27 -11.35)" opacity="0.1"/><path d="M503.43,277.15a3.66,3.66,0,0,1,.77,2.34c0,.83-.08,1.67,0,2.5s.47,1.91,1.35,2Z" transform="translate(-64.27 -11.35)" opacity="0.1"/><path d="M518.43,249.68a21,21,0,0,1,2.93,3.64,8.24,8.24,0,0,0,.84,1.19,12.85,12.85,0,0,0,1.61,1.32,7.61,7.61,0,0,1,2.57,4Z" transform="translate(-64.27 -11.35)" opacity="0.1"/><path d="M560.86,226a5.27,5.27,0,0,1-1,1.39c-.37.35-.79.65-1.12,1a8.59,8.59,0,0,0-.72,1.06,29.55,29.55,0,0,1-3,3.79Z" transform="translate(-64.27 -11.35)" opacity="0.1"/><path d="M541.21,249.44a2.44,2.44,0,0,1,.86,2.2,6.29,6.29,0,0,0,.16,2.45c.13.35.36.65.51,1A4.7,4.7,0,0,1,543,257c0,.74,0,1.49-.07,2.24a3.88,3.88,0,0,1-.73,2.53Z" transform="translate(-64.27 -11.35)" opacity="0.1"/><path d="M547.09,272.73a9.62,9.62,0,0,0-1.82,1.25,3.25,3.25,0,0,0-1.06,1.9,9.36,9.36,0,0,1-.09.94,3.09,3.09,0,0,1-.62,1.14,15.65,15.65,0,0,1-1.54,1.71Z" transform="translate(-64.27 -11.35)"/><path d="M541.79,293.92a12.79,12.79,0,0,1,1.47-1,6.18,6.18,0,0,1,1.51-.66,17.24,17.24,0,0,1,2.49-.27,3.49,3.49,0,0,0,2.27-.93Z" transform="translate(-64.27 -11.35)" opacity="0.1"/><path d="M574.8,283.67a6.76,6.76,0,0,0-2.9.51c-.44.24-.83.57-1.28.81a3.88,3.88,0,0,1-1.86.49Z" transform="translate(-64.27 -11.35)" opacity="0.1"/><path d="M561.1,287.74a.56.56,0,0,1,.71.17c.18.2.27.46.46.66a2,2,0,0,0,1.47.46Z" transform="translate(-64.27 -11.35)" opacity="0.1"/><path d="M555.45,266.76l-1,.5a17,17,0,0,0-2.8,1.71Z" transform="translate(-64.27 -11.35)" opacity="0.1"/><path d="M544.61,276.05c-.63-.15-1.17.51-1.28,1.14a17.34,17.34,0,0,1-.16,1.92,3.62,3.62,0,0,1-.93,1.4Z" transform="translate(-64.27 -11.35)" opacity="0.1"/><path d="M534.05,277.2c-.57,1.7.63,3.55.28,5.3-.11.54-.35,1-.48,1.56a4.76,4.76,0,0,0,1.15,4Z" transform="translate(-64.27 -11.35)" opacity="0.1"/></g><path d="M172.21,340.91s-21.07-.89-23.29-42.14,19.74-48.24,19.74-48.24,7-3.89,10.05-4.05,13.39.81,13.39.81l-11.37-2.19s16-6.09,20.79-6.57l-17.29,3.65s-.25-9.58,3.89-12.75c0,0-3.53-.26-5.41,6.64a13.21,13.21,0,0,1-7.89,8.86c-6.42,2.5-15.28,6.45-17.3,9.83,0,0-3.74,3.9-3.17-6.25s3.25-18.84,4.22-19.08c0,0,7.63-8.11,18.35-8.6,0,0-6.25-2.52-16.8,5.36,0,0-.9-4,3.08-8.69s10.15-14.61,16.89-15.67c0,0-9.42-.56-16.89,11.61,0,0-2.76,1.79-3-2.76a56.64,56.64,0,0,0-1.87-10.23s-2.27,10.48,2.52,15.18c0,0-9.18,11.94-8.77,25.33,0,0-2.84,6.09-3.9-1.05,0,0-.61-9.84-1.83-18.19a24.71,24.71,0,0,1,5.18-19.06c2-2.52,3.44-5,2.66-6.27l-10.63,12.67s-8.93-20.7-15.43-25.17-7.3-5.44-7.3-5.44l10.47,12.26-13.15-4.62,13.15,6.08s6.09,5,9.58,18.51,3.81,22,3.81,22-18.75-14.85-22.32-14.37l12.13,9.18a28.92,28.92,0,0,1,11.41,21.1h0s-23.46-6-29.14-7.14l-10.72-11,8.12,10.39-16.72-.24-9.58-6.82s7.55,6.33,6.82,6.74-11.77.89-11.77.89,28.08-.16,31.17,1.87,10,2.76,10,2.76l-19.89,3,23.71-1.71s17.94,3.25,18.91,8.85c0,0-3.65,9.54-6.09,13.32-2,3.14-6.08,13.31-6.9,22.24s-1.94,22.65,1.14,31,4.22,13.15,2.68,15.67-3,5.76,2,6.41,27.11-.33,27.11-.33S173.51,345.88,172.21,340.91Z" transform="translate(-64.27 -11.35)" fill="#ffbc44"/><path d="M160.41,336.48a10.61,10.61,0,0,0-7.15-.9,42.86,42.86,0,0,1-11,.32Z" transform="translate(-64.27 -11.35)" fill="#ffbc44" opacity="0.1"/><path d="M147.19,287.87s-1,15.87.78,19Z" transform="translate(-64.27 -11.35)" fill="#ffbc44" opacity="0.1"/><path d="M143.47,306.86s1.29,14.87,2.19,17.77S143.47,306.86,143.47,306.86Z" transform="translate(-64.27 -11.35)" fill="#ffbc44" opacity="0.1"/><path d="M142.22,270.32c-.92.34-4.83,8.27-4.05,10.62S142.22,270.32,142.22,270.32Z" transform="translate(-64.27 -11.35)" fill="#ffbc44" opacity="0.1"/><path d="M152.13,262.09c-.42.19-2.24,4.76-1.88,6.11S152.13,262.09,152.13,262.09Z" transform="translate(-64.27 -11.35)" fill="#ffbc44" opacity="0.1"/><path d="M135.2,288.73a60.46,60.46,0,0,1,.41,11.32,43.72,43.72,0,0,0,.12,8.6Z" transform="translate(-64.27 -11.35)" fill="#ffbc44" opacity="0.1"/><path d="M184.17,235.08a3.71,3.71,0,0,0-.76,2.34c0,.83.08,1.67,0,2.5s-.48,1.91-1.35,2Z" transform="translate(-64.27 -11.35)" fill="#ffbc44" opacity="0.1"/><path d="M169.18,207.61a21,21,0,0,0-2.94,3.64,9,9,0,0,1-.83,1.19,13.62,13.62,0,0,1-1.61,1.32,7.59,7.59,0,0,0-2.57,4Z" transform="translate(-64.27 -11.35)" fill="#ffbc44" opacity="0.1"/><path d="M126.75,183.89a5.06,5.06,0,0,0,1,1.39c.37.35.79.65,1.12,1a8.59,8.59,0,0,1,.72,1.06,28.7,28.7,0,0,0,3,3.79Z" transform="translate(-64.27 -11.35)" fill="#ffbc44" opacity="0.1"/><path d="M146.4,207.37a2.47,2.47,0,0,0-.87,2.2,6.1,6.1,0,0,1-.15,2.45c-.14.35-.36.65-.51,1a4.7,4.7,0,0,0-.24,1.91c0,.74,0,1.49.07,2.24a3.82,3.82,0,0,0,.73,2.53Z" transform="translate(-64.27 -11.35)" fill="#ffbc44" opacity="0.1"/><path d="M140.52,230.66a9.53,9.53,0,0,1,1.82,1.26,3.25,3.25,0,0,1,1.06,1.89c0,.32,0,.64.09.95a3,3,0,0,0,.62,1.14,15.45,15.45,0,0,0,1.54,1.7Z" transform="translate(-64.27 -11.35)" fill="#ffbc44"/><path d="M145.82,251.86a10.7,10.7,0,0,0-1.47-1,6.16,6.16,0,0,0-1.51-.67,17.24,17.24,0,0,0-2.49-.27,3.52,3.52,0,0,1-2.28-.93Z" transform="translate(-64.27 -11.35)" fill="#ffbc44" opacity="0.1"/><path d="M112.81,241.6a6.58,6.58,0,0,1,2.89.52c.45.23.84.56,1.28.8a3.83,3.83,0,0,0,1.86.49Z" transform="translate(-64.27 -11.35)" fill="#ffbc44" opacity="0.1"/><path d="M126.51,245.68a.55.55,0,0,0-.71.16c-.18.2-.28.47-.46.66a2.06,2.06,0,0,1-1.48.46Z" transform="translate(-64.27 -11.35)" fill="#ffbc44" opacity="0.1"/><path d="M132.15,224.7l1,.49a17,17,0,0,1,2.79,1.71Z" transform="translate(-64.27 -11.35)" fill="#ffbc44" opacity="0.1"/><path d="M143,234c.62-.15,1.16.51,1.27,1.15a17.36,17.36,0,0,0,.16,1.91,3.65,3.65,0,0,0,.94,1.4Z" transform="translate(-64.27 -11.35)" fill="#ffbc44" opacity="0.1"/><path d="M153.56,235.14c.57,1.69-.64,3.54-.28,5.29.1.54.35,1,.48,1.56a4.76,4.76,0,0,1-1.15,4Z" transform="translate(-64.27 -11.35)" fill="#ffbc44" opacity="0.1"/><g opacity="0.5"><path d="M172.21,340.91s-21.07-.89-23.29-42.14,19.74-48.24,19.74-48.24,7-3.89,10.05-4.05,13.39.81,13.39.81l-11.37-2.19s16-6.09,20.79-6.57l-17.29,3.65s-.25-9.58,3.89-12.75c0,0-3.53-.26-5.41,6.64a13.21,13.21,0,0,1-7.89,8.86c-6.42,2.5-15.28,6.45-17.3,9.83,0,0-3.74,3.9-3.17-6.25s3.25-18.84,4.22-19.08c0,0,7.63-8.11,18.35-8.6,0,0-6.25-2.52-16.8,5.36,0,0-.9-4,3.08-8.69s10.15-14.61,16.89-15.67c0,0-9.42-.56-16.89,11.61,0,0-2.76,1.79-3-2.76a56.64,56.64,0,0,0-1.87-10.23s-2.27,10.48,2.52,15.18c0,0-9.18,11.94-8.77,25.33,0,0-2.84,6.09-3.9-1.05,0,0-.61-9.84-1.83-18.19a24.71,24.71,0,0,1,5.18-19.06c2-2.52,3.44-5,2.66-6.27l-10.63,12.67s-8.93-20.7-15.43-25.17-7.3-5.44-7.3-5.44l10.47,12.26-13.15-4.62,13.15,6.08s6.09,5,9.58,18.51,3.81,22,3.81,22-18.75-14.85-22.32-14.37l12.13,9.18a28.92,28.92,0,0,1,11.41,21.1h0s-23.46-6-29.14-7.14l-10.72-11,8.12,10.39-16.72-.24-9.58-6.82s7.55,6.33,6.82,6.74-11.77.89-11.77.89,28.08-.16,31.17,1.87,10,2.76,10,2.76l-19.89,3,23.71-1.71s17.94,3.25,18.91,8.85c0,0-3.65,9.54-6.09,13.32-2,3.14-6.08,13.31-6.9,22.24s-1.94,22.65,1.14,31,4.22,13.15,2.68,15.67-3,5.76,2,6.41,27.11-.33,27.11-.33S173.51,345.88,172.21,340.91Z" transform="translate(-64.27 -11.35)"/><path d="M160.41,336.48a10.61,10.61,0,0,0-7.15-.9,42.86,42.86,0,0,1-11,.32Z" transform="translate(-64.27 -11.35)" opacity="0.1"/><path d="M147.19,287.87s-1,15.87.78,19Z" transform="translate(-64.27 -11.35)" opacity="0.1"/><path d="M143.47,306.86s1.29,14.87,2.19,17.77S143.47,306.86,143.47,306.86Z" transform="translate(-64.27 -11.35)" opacity="0.1"/><path d="M142.22,270.32c-.92.34-4.83,8.27-4.05,10.62S142.22,270.32,142.22,270.32Z" transform="translate(-64.27 -11.35)" opacity="0.1"/><path d="M152.13,262.09c-.42.19-2.24,4.76-1.88,6.11S152.13,262.09,152.13,262.09Z" transform="translate(-64.27 -11.35)" opacity="0.1"/><path d="M135.2,288.73a60.46,60.46,0,0,1,.41,11.32,43.72,43.72,0,0,0,.12,8.6Z" transform="translate(-64.27 -11.35)" opacity="0.1"/><path d="M184.17,235.08a3.71,3.71,0,0,0-.76,2.34c0,.83.08,1.67,0,2.5s-.48,1.91-1.35,2Z" transform="translate(-64.27 -11.35)" opacity="0.1"/><path d="M169.18,207.61a21,21,0,0,0-2.94,3.64,9,9,0,0,1-.83,1.19,13.62,13.62,0,0,1-1.61,1.32,7.59,7.59,0,0,0-2.57,4Z" transform="translate(-64.27 -11.35)" opacity="0.1"/><path d="M126.75,183.89a5.06,5.06,0,0,0,1,1.39c.37.35.79.65,1.12,1a8.59,8.59,0,0,1,.72,1.06,28.7,28.7,0,0,0,3,3.79Z" transform="translate(-64.27 -11.35)" opacity="0.1"/><path d="M146.4,207.37a2.47,2.47,0,0,0-.87,2.2,6.1,6.1,0,0,1-.15,2.45c-.14.35-.36.65-.51,1a4.7,4.7,0,0,0-.24,1.91c0,.74,0,1.49.07,2.24a3.82,3.82,0,0,0,.73,2.53Z" transform="translate(-64.27 -11.35)" opacity="0.1"/><path d="M140.52,230.66a9.53,9.53,0,0,1,1.82,1.26,3.25,3.25,0,0,1,1.06,1.89c0,.32,0,.64.09.95a3,3,0,0,0,.62,1.14,15.45,15.45,0,0,0,1.54,1.7Z" transform="translate(-64.27 -11.35)"/><path d="M145.82,251.86a10.7,10.7,0,0,0-1.47-1,6.16,6.16,0,0,0-1.51-.67,17.24,17.24,0,0,0-2.49-.27,3.52,3.52,0,0,1-2.28-.93Z" transform="translate(-64.27 -11.35)" opacity="0.1"/><path d="M112.81,241.6a6.58,6.58,0,0,1,2.89.52c.45.23.84.56,1.28.8a3.83,3.83,0,0,0,1.86.49Z" transform="translate(-64.27 -11.35)" opacity="0.1"/><path d="M126.51,245.68a.55.55,0,0,0-.71.16c-.18.2-.28.47-.46.66a2.06,2.06,0,0,1-1.48.46Z" transform="translate(-64.27 -11.35)" opacity="0.1"/><path d="M132.15,224.7l1,.49a17,17,0,0,1,2.79,1.71Z" transform="translate(-64.27 -11.35)" opacity="0.1"/><path d="M143,234c.62-.15,1.16.51,1.27,1.15a17.36,17.36,0,0,0,.16,1.91,3.65,3.65,0,0,0,.94,1.4Z" transform="translate(-64.27 -11.35)" opacity="0.1"/><path d="M153.56,235.14c.57,1.69-.64,3.54-.28,5.29.1.54.35,1,.48,1.56a4.76,4.76,0,0,1-1.15,4Z" transform="translate(-64.27 -11.35)" opacity="0.1"/></g><path d="M254.59,524.31l-.26.39c-.34.5-1,1.46-2,2.75l-3.68-3.1-.61-.51A13.83,13.83,0,0,1,254.59,524.31Z" transform="translate(-64.27 -11.35)" fill="#ffbc44"/><path d="M264.75,474.72s-11.54,23.46-31.18,36.9l-9.37-7.9C235.07,491,252.9,472.82,264.75,474.72Z" transform="translate(-64.27 -11.35)" fill="#ffbc44"/><path d="M230.08,462.19s28.38-33.66,44.13-33.95c0,0-22,44.55-45.07,44.72Z" transform="translate(-64.27 -11.35)" fill="#ffbc44"/><path d="M239.11,426.65l26.52-69.31s2.89,62-29.81,82.13Z" transform="translate(-64.27 -11.35)" fill="#ffbc44"/><path d="M248.74,350.68s3.3-57.43.19-62c0,0,21.27,47.18.22,87.36Z" transform="translate(-64.27 -11.35)" fill="#ffbc44"/><path d="M213.47,494.69,196.39,480.3a117.51,117.51,0,0,1-.82-26.65C205.5,457.92,210.79,478.53,213.47,494.69Z" transform="translate(-64.27 -11.35)" fill="#ffbc44"/><path d="M232.51,466.44s-1.14-44-13.26-54.07c0,0-10.67,48.52,7.27,63.08Z" transform="translate(-64.27 -11.35)" fill="#ffbc44"/><path d="M237.65,424.52l-13.29-73s-14.27,60.42,14.16,86.22Z" transform="translate(-64.27 -11.35)" fill="#ffbc44"/><path d="M238.18,351.62s-30.83-48.56-30.35-54.09c0,0,4.38,51.57,42.32,76.42Z" transform="translate(-64.27 -11.35)" fill="#ffbc44"/><path d="M241.31,337s-29.65-69.32-42.45-74.68c0,0,40.47,19.38,44.74,72.63Z" transform="translate(-64.27 -11.35)" fill="#ffbc44"/><path d="M229,473.38l-1.92-.54c21.79-77.6,26.52-126.91,13.31-138.85l1.34-1.49C255.73,345.17,251.33,393.88,229,473.38Z" transform="translate(-64.27 -11.35)" fill="#444053"/><path d="M230.6,467.61c-.27,1-.55,2-.83,2.94v0c-.19.72-.39,1.44-.6,2.17q-.1.31-.18.63c-2.48,8.67-5.19,17.88-8.13,27.54l-1.73-1.46h0q3.9-12.58,7.22-24.13h0c.49-1.64.95-3.26,1.4-4.86.1-.37.21-.74.31-1.11,0-.14.09-.28.12-.42l1.39-.74Z" transform="translate(-64.27 -11.35)" fill="#444053"/><path d="M291.3,545.78s-21.21-38.57-36.6-41.95c0,0,12.79,48,35.41,52.7Z" transform="translate(-64.27 -11.35)" fill="#ffbc44"/><path d="M289.44,509.17,277.05,436s-15,60.24,13.09,86.39Z" transform="translate(-64.27 -11.35)" fill="#ffbc44"/><path d="M294.93,432.78s8-57,12-60.85c0,0-30.13,42.08-17.38,85.61Z" transform="translate(-64.27 -11.35)" fill="#ffbc44"/><path d="M328.27,587.33s0,1.43-.19,3.88l-2.78-2.34-.27-.23a1.71,1.71,0,0,1,.23-.13A11.91,11.91,0,0,1,328.27,587.33Z" transform="translate(-64.27 -11.35)" fill="#ffbc44"/><path d="M326.82,544.2s-1.71,19.13-10.7,36.94L305,571.73C310.63,558.81,318.29,546,326.82,544.2Z" transform="translate(-64.27 -11.35)" fill="#ffbc44"/><path d="M288.08,549.48s9.78-42.92,23.64-50.41c0,0,.92,49.66-19.53,60.42Z" transform="translate(-64.27 -11.35)" fill="#ffbc44"/><path d="M291.28,507.36l27.38-69s2.13,62.05-30.82,81.76Z" transform="translate(-64.27 -11.35)" fill="#ffbc44"/><path d="M305.09,435.79s39.78-41.56,40.39-47.07c0,0-14.42,49.69-56.51,66.61Z" transform="translate(-64.27 -11.35)" fill="#ffbc44"/><path d="M304.9,420.82s42.7-62.13,56.3-64.88c0,0-43.49,11.05-58.14,62.42Z" transform="translate(-64.27 -11.35)" fill="#ffbc44"/><path d="M290.16,557l2-.15C286,476.46,291.1,427.18,306.4,418.06l-1-1.72C289.15,426,283.9,474.63,290.16,557Z" transform="translate(-64.27 -11.35)" fill="#444053"/><path d="M292.39,559.38c.05.63.1,1.27.16,1.91l-2.17-1.83c-.07-.84-.13-1.67-.2-2.49,0-.21,0-.42-.05-.63v0c-.06-.76-.11-1.5-.17-2.25h0c-.06-.8-.12-1.59-.19-2.38,0-.23,0-.45,0-.67h0l.91.75,1.21,1c0,.08,0,.15,0,.22a1.55,1.55,0,0,1,0,.22c.07.84.13,1.69.2,2.54,0,.18,0,.35,0,.53Q292.26,557.8,292.39,559.38Z" transform="translate(-64.27 -11.35)" fill="#444053"/></svg>